<?xml version="1.0" encoding="utf-8" standalone="no"?>
<!DOCTYPE svg PUBLIC "-//W3C//DTD SVG 1.1//EN"
  "http://www.w3.org/Graphics/SVG/1.1/DTD/svg11.dtd">
<svg xmlns:xlink="http://www.w3.org/1999/xlink" width="270pt" height="201.6pt" viewBox="0 0 270 201.6" xmlns="http://www.w3.org/2000/svg" version="1.1">
 <metadata>
  <rdf:RDF xmlns:dc="http://purl.org/dc/elements/1.1/" xmlns:cc="http://creativecommons.org/ns#" xmlns:rdf="http://www.w3.org/1999/02/22-rdf-syntax-ns#">
   <cc:Work>
    <dc:type rdf:resource="http://purl.org/dc/dcmitype/StillImage"/>
    <dc:date>2026-04-30T12:28:06.872345</dc:date>
    <dc:format>image/svg+xml</dc:format>
    <dc:creator>
     <cc:Agent>
      <dc:title>Matplotlib v3.9.2, https://matplotlib.org/</dc:title>
     </cc:Agent>
    </dc:creator>
   </cc:Work>
  </rdf:RDF>
 </metadata>
 <defs>
  <style type="text/css">*{stroke-linejoin: round; stroke-linecap: butt}</style>
 </defs>
 <g id="figure_1">
  <g id="patch_1">
   <path d="M 0 201.6 
L 270 201.6 
L 270 0 
L 0 0 
z
" style="fill: #ffffff"/>
  </g>
  <g id="axes_1">
   <g id="patch_2">
    <path d="M 28.857173 190.8 
L 259.2 190.8 
L 259.2 10.8 
L 28.857173 10.8 
z
" style="fill: #ffffff"/>
   </g>
   <g id="patch_3">
    <path d="M 28.197165 190.8 
L 61.19757 190.8 
L 61.19757 10.8 
L 28.197165 10.8 
z
" clip-path="url(#p537ef13291)" style="fill: #cccccc; opacity: 0.08; stroke: #cccccc; stroke-linejoin: miter"/>
   </g>
   <g id="patch_4">
    <path d="M 61.857578 190.8 
L 94.857983 190.8 
L 94.857983 10.8 
L 61.857578 10.8 
z
" clip-path="url(#p537ef13291)" style="fill: #2ca02c; opacity: 0.08; stroke: #2ca02c; stroke-linejoin: miter"/>
   </g>
   <g id="patch_5">
    <path d="M 61.857578 190.8 
L 160.858793 190.8 
L 160.858793 10.8 
L 61.857578 10.8 
z
" clip-path="url(#p537ef13291)" style="fill: #2ca02c; opacity: 0.05; stroke: #2ca02c; stroke-linejoin: miter"/>
   </g>
   <g id="patch_6">
    <path d="M 94.857983 190.8 
L 259.860008 190.8 
L 259.860008 10.8 
L 94.857983 10.8 
z
" clip-path="url(#p537ef13291)" style="fill: #d62728; opacity: 0.05; stroke: #d62728; stroke-linejoin: miter"/>
   </g>
   <g id="patch_7">
    <path d="M 160.858793 190.8 
L 259.860008 190.8 
L 259.860008 10.8 
L 160.858793 10.8 
z
" clip-path="url(#p537ef13291)" style="fill: #d62728; opacity: 0.08; stroke: #d62728; stroke-linejoin: miter"/>
   </g>
   <g id="patch_8">
    <path d="M 94.857983 190.8 
L 160.858793 190.8 
L 160.858793 10.8 
L 94.857983 10.8 
z
" clip-path="url(#p537ef13291)" style="fill: #ff7f0e; opacity: 0.06; stroke: #ff7f0e; stroke-linejoin: miter"/>
   </g>
   <g id="patch_9">
    <path d="M 226.859603 190.8 
L 259.860008 190.8 
L 259.860008 10.8 
L 226.859603 10.8 
z
" clip-path="url(#p537ef13291)" style="fill: #2ca02c; opacity: 0.12; stroke: #2ca02c; stroke-linejoin: miter"/>
   </g>
   <g id="matplotlib.axis_1"/>
   <g id="matplotlib.axis_2">
    <g id="ytick_1">
     <g id="line2d_1">
      <path d="M 28.857173 178.386207 
L 259.2 178.386207 
" clip-path="url(#p537ef13291)" style="fill: none; stroke: #b0b0b0; stroke-opacity: 0.2; stroke-width: 0.6; stroke-linecap: square"/>
     </g>
     <g id="line2d_2">
      <defs>
       <path id="m7a84c5e8c0" d="M 0 0 
L 3.5 0 
" style="stroke: #000000; stroke-width: 0.8"/>
      </defs>
      <g>
       <use xlink:href="#m7a84c5e8c0" x="28.857173" y="178.386207" style="stroke: #000000; stroke-width: 0.8"/>
      </g>
     </g>
     <g id="line2d_3">
      <defs>
       <path id="maf980e08d5" d="M 0 0 
L -3.5 0 
" style="stroke: #000000; stroke-width: 0.8"/>
      </defs>
      <g>
       <use xlink:href="#maf980e08d5" x="259.2" y="178.386207" style="stroke: #000000; stroke-width: 0.8"/>
      </g>
     </g>
     <g id="text_1">
      <!-- $P^0$ -->
      <g transform="translate(13.857173 182.185426) scale(0.1 -0.1)">
       <defs>
        <path id="DejaVuSans-Oblique-50" d="M 1081 4666 
L 2541 4666 
Q 3178 4666 3512 4369 
Q 3847 4072 3847 3500 
Q 3847 2731 3353 2303 
Q 2859 1875 1966 1875 
L 1172 1875 
L 806 0 
L 172 0 
L 1081 4666 
z
M 1613 4147 
L 1275 2394 
L 2069 2394 
Q 2606 2394 2893 2669 
Q 3181 2944 3181 3456 
Q 3181 3784 2986 3965 
Q 2791 4147 2438 4147 
L 1613 4147 
z
" transform="scale(0.015625)"/>
        <path id="DejaVuSans-30" d="M 2034 4250 
Q 1547 4250 1301 3770 
Q 1056 3291 1056 2328 
Q 1056 1369 1301 889 
Q 1547 409 2034 409 
Q 2525 409 2770 889 
Q 3016 1369 3016 2328 
Q 3016 3291 2770 3770 
Q 2525 4250 2034 4250 
z
M 2034 4750 
Q 2819 4750 3233 4129 
Q 3647 3509 3647 2328 
Q 3647 1150 3233 529 
Q 2819 -91 2034 -91 
Q 1250 -91 836 529 
Q 422 1150 422 2328 
Q 422 3509 836 4129 
Q 1250 4750 2034 4750 
z
" transform="scale(0.015625)"/>
       </defs>
       <use xlink:href="#DejaVuSans-Oblique-50" transform="translate(0 0.765625)"/>
       <use xlink:href="#DejaVuSans-30" transform="translate(67.319505 39.046875) scale(0.7)"/>
      </g>
     </g>
    </g>
    <g id="ytick_2">
     <g id="line2d_4">
      <path d="M 28.857173 23.213793 
L 259.2 23.213793 
" clip-path="url(#p537ef13291)" style="fill: none; stroke: #b0b0b0; stroke-opacity: 0.2; stroke-width: 0.6; stroke-linecap: square"/>
     </g>
     <g id="line2d_5">
      <g>
       <use xlink:href="#m7a84c5e8c0" x="28.857173" y="23.213793" style="stroke: #000000; stroke-width: 0.8"/>
      </g>
     </g>
     <g id="line2d_6">
      <g>
       <use xlink:href="#maf980e08d5" x="259.2" y="23.213793" style="stroke: #000000; stroke-width: 0.8"/>
      </g>
     </g>
     <g id="text_2">
      <!-- $P^+$ -->
      <g transform="translate(9.757173 27.013012) scale(0.1 -0.1)">
       <defs>
        <path id="DejaVuSans-2b" d="M 2944 4013 
L 2944 2272 
L 4684 2272 
L 4684 1741 
L 2944 1741 
L 2944 0 
L 2419 0 
L 2419 1741 
L 678 1741 
L 678 2272 
L 2419 2272 
L 2419 4013 
L 2944 4013 
z
" transform="scale(0.015625)"/>
       </defs>
       <use xlink:href="#DejaVuSans-Oblique-50" transform="translate(0 0.826562)"/>
       <use xlink:href="#DejaVuSans-2b" transform="translate(80.957201 39.107812) scale(0.7)"/>
      </g>
     </g>
    </g>
   </g>
   <g id="line2d_7">
    <path d="M 28.857173 178.386207 
L 61.19757 178.386207 
L 61.857578 23.213793 
L 94.197975 23.213793 
L 94.857983 178.386207 
L 259.2 178.386207 
L 259.2 178.386207 
" clip-path="url(#p537ef13291)" style="fill: none; stroke-dasharray: 5.92,2.56; stroke-dashoffset: 0; stroke: #2ca02c; stroke-opacity: 0.6; stroke-width: 1.6"/>
   </g>
   <g id="line2d_8">
    <path d="M 28.857173 178.386207 
L 61.19757 178.386207 
L 61.857578 23.213793 
L 160.198785 23.213793 
L 160.858793 178.386207 
L 259.2 178.386207 
L 259.2 178.386207 
" clip-path="url(#p537ef13291)" style="fill: none; stroke: #2ca02c; stroke-opacity: 0.8; stroke-width: 2.2; stroke-linecap: square"/>
   </g>
   <g id="line2d_9">
    <path d="M 28.857173 178.386207 
L 61.19757 178.386207 
L 61.857578 23.213793 
L 160.198785 23.213793 
L 160.858793 178.386207 
L 226.199595 178.386207 
L 226.859603 23.213793 
L 259.2 23.213793 
L 259.2 23.213793 
" clip-path="url(#p537ef13291)" style="fill: none; stroke-dasharray: 1.6,2.64; stroke-dashoffset: 0; stroke: #2ca02c; stroke-opacity: 0.95; stroke-width: 1.6"/>
   </g>
   <g id="LineCollection_1">
    <path d="M 94.857983 171.403448 
L 259.2 171.403448 
" clip-path="url(#p537ef13291)" style="fill: none; stroke-dasharray: 8.14,3.52; stroke-dashoffset: 0; stroke: #000000; stroke-opacity: 0.6; stroke-width: 2.2"/>
    <path d="M 94.857983 185.368966 
L 259.2 185.368966 
" clip-path="url(#p537ef13291)" style="fill: none; stroke-dasharray: 8.14,3.52; stroke-dashoffset: 0; stroke: #000000; stroke-opacity: 0.6; stroke-width: 2.2"/>
   </g>
   <g id="LineCollection_2">
    <path d="M 160.858793 171.403448 
L 259.2 171.403448 
" clip-path="url(#p537ef13291)" style="fill: none; stroke: #000000; stroke-opacity: 0.6; stroke-width: 2.2"/>
    <path d="M 160.858793 185.368966 
L 259.2 185.368966 
" clip-path="url(#p537ef13291)" style="fill: none; stroke: #000000; stroke-opacity: 0.6; stroke-width: 2.2"/>
   </g>
   <g id="LineCollection_3">
    <path d="M 160.858793 171.403448 
L 226.859603 171.403448 
" clip-path="url(#p537ef13291)" style="fill: none; stroke-dasharray: 2.2,3.63; stroke-dashoffset: 0; stroke: #000000; stroke-opacity: 0.8; stroke-width: 2.2"/>
    <path d="M 160.858793 185.368966 
L 226.859603 185.368966 
" clip-path="url(#p537ef13291)" style="fill: none; stroke-dasharray: 2.2,3.63; stroke-dashoffset: 0; stroke: #000000; stroke-opacity: 0.8; stroke-width: 2.2"/>
   </g>
   <g id="patch_10">
    <path d="M 28.857173 190.8 
L 28.857173 10.8 
" style="fill: none; stroke: #000000; stroke-width: 0.8; stroke-linejoin: miter; stroke-linecap: square"/>
   </g>
   <g id="patch_11">
    <path d="M 28.857173 190.8 
L 259.2 190.8 
" style="fill: none; stroke: #000000; stroke-width: 0.8; stroke-linejoin: miter; stroke-linecap: square"/>
   </g>
  </g>
 </g>
 <defs>
  <clipPath id="p537ef13291">
   <rect x="28.857173" y="10.8" width="230.342827" height="180"/>
  </clipPath>
 </defs>
</svg>
