<?xml version="1.0" encoding="utf-8" standalone="no"?>
<!DOCTYPE svg PUBLIC "-//W3C//DTD SVG 1.1//EN"
  "http://www.w3.org/Graphics/SVG/1.1/DTD/svg11.dtd">
<svg xmlns:xlink="http://www.w3.org/1999/xlink" width="270pt" height="201.6pt" viewBox="0 0 270 201.6" xmlns="http://www.w3.org/2000/svg" version="1.1">
 <metadata>
  <rdf:RDF xmlns:dc="http://purl.org/dc/elements/1.1/" xmlns:cc="http://creativecommons.org/ns#" xmlns:rdf="http://www.w3.org/1999/02/22-rdf-syntax-ns#">
   <cc:Work>
    <dc:type rdf:resource="http://purl.org/dc/dcmitype/StillImage"/>
    <dc:date>2026-04-30T12:28:06.500840</dc:date>
    <dc:format>image/svg+xml</dc:format>
    <dc:creator>
     <cc:Agent>
      <dc:title>Matplotlib v3.9.2, https://matplotlib.org/</dc:title>
     </cc:Agent>
    </dc:creator>
   </cc:Work>
  </rdf:RDF>
 </metadata>
 <defs>
  <style type="text/css">*{stroke-linejoin: round; stroke-linecap: butt}</style>
 </defs>
 <g id="figure_1">
  <g id="patch_1">
   <path d="M 0 201.6 
L 270 201.6 
L 270 0 
L 0 0 
z
" style="fill: #ffffff"/>
  </g>
  <g id="axes_1">
   <g id="patch_2">
    <path d="M 28.857173 173.908 
L 259.2 173.908 
L 259.2 10.8 
L 28.857173 10.8 
z
" style="fill: #ffffff"/>
   </g>
   <g id="matplotlib.axis_1">
    <g id="xtick_1">
     <g id="line2d_1">
      <path d="M 65.712025 173.908 
L 65.712025 10.8 
" clip-path="url(#p7dc5b249c1)" style="fill: none; stroke: #b0b0b0; stroke-opacity: 0.2; stroke-width: 0.8; stroke-linecap: square"/>
     </g>
     <g id="line2d_2">
      <defs>
       <path id="m485f51289a" d="M 0 0 
L 0 -3.5 
" style="stroke: #000000; stroke-width: 0.8"/>
      </defs>
      <g>
       <use xlink:href="#m485f51289a" x="65.712025" y="173.908" style="stroke: #000000; stroke-width: 0.8"/>
      </g>
     </g>
     <g id="text_1">
      <!-- $P^0$ -->
      <g transform="translate(59.962025 185.006438) scale(0.1 -0.1)">
       <defs>
        <path id="DejaVuSans-Oblique-50" d="M 1081 4666 
L 2541 4666 
Q 3178 4666 3512 4369 
Q 3847 4072 3847 3500 
Q 3847 2731 3353 2303 
Q 2859 1875 1966 1875 
L 1172 1875 
L 806 0 
L 172 0 
L 1081 4666 
z
M 1613 4147 
L 1275 2394 
L 2069 2394 
Q 2606 2394 2893 2669 
Q 3181 2944 3181 3456 
Q 3181 3784 2986 3965 
Q 2791 4147 2438 4147 
L 1613 4147 
z
" transform="scale(0.015625)"/>
        <path id="DejaVuSans-30" d="M 2034 4250 
Q 1547 4250 1301 3770 
Q 1056 3291 1056 2328 
Q 1056 1369 1301 889 
Q 1547 409 2034 409 
Q 2525 409 2770 889 
Q 3016 1369 3016 2328 
Q 3016 3291 2770 3770 
Q 2525 4250 2034 4250 
z
M 2034 4750 
Q 2819 4750 3233 4129 
Q 3647 3509 3647 2328 
Q 3647 1150 3233 529 
Q 2819 -91 2034 -91 
Q 1250 -91 836 529 
Q 422 1150 422 2328 
Q 422 3509 836 4129 
Q 1250 4750 2034 4750 
z
" transform="scale(0.015625)"/>
       </defs>
       <use xlink:href="#DejaVuSans-Oblique-50" transform="translate(0 0.765625)"/>
       <use xlink:href="#DejaVuSans-30" transform="translate(67.319505 39.046875) scale(0.7)"/>
      </g>
     </g>
    </g>
    <g id="xtick_2">
     <g id="line2d_3">
      <path d="M 236.09884 173.908 
L 236.09884 10.8 
" clip-path="url(#p7dc5b249c1)" style="fill: none; stroke: #b0b0b0; stroke-opacity: 0.2; stroke-width: 0.8; stroke-linecap: square"/>
     </g>
     <g id="line2d_4">
      <g>
       <use xlink:href="#m485f51289a" x="236.09884" y="173.908" style="stroke: #000000; stroke-width: 0.8"/>
      </g>
     </g>
     <g id="text_2">
      <!-- $P^+$ -->
      <g transform="translate(228.29884 185.006438) scale(0.1 -0.1)">
       <defs>
        <path id="DejaVuSans-2b" d="M 2944 4013 
L 2944 2272 
L 4684 2272 
L 4684 1741 
L 2944 1741 
L 2944 0 
L 2419 0 
L 2419 1741 
L 678 1741 
L 678 2272 
L 2419 2272 
L 2419 4013 
L 2944 4013 
z
" transform="scale(0.015625)"/>
       </defs>
       <use xlink:href="#DejaVuSans-Oblique-50" transform="translate(0 0.826562)"/>
       <use xlink:href="#DejaVuSans-2b" transform="translate(80.957201 39.107812) scale(0.7)"/>
      </g>
     </g>
    </g>
   </g>
   <g id="matplotlib.axis_2">
    <g id="ytick_1">
     <g id="line2d_5">
      <path d="M 28.857173 147.81072 
L 259.2 147.81072 
" clip-path="url(#p7dc5b249c1)" style="fill: none; stroke: #b0b0b0; stroke-opacity: 0.2; stroke-width: 0.8; stroke-linecap: square"/>
     </g>
     <g id="line2d_6">
      <defs>
       <path id="mc8f07ddf99" d="M 0 0 
L 3.5 0 
" style="stroke: #000000; stroke-width: 0.8"/>
      </defs>
      <g>
       <use xlink:href="#mc8f07ddf99" x="28.857173" y="147.81072" style="stroke: #000000; stroke-width: 0.8"/>
      </g>
     </g>
     <g id="text_3">
      <!-- $P^0$ -->
      <g transform="translate(13.857173 151.609939) scale(0.1 -0.1)">
       <use xlink:href="#DejaVuSans-Oblique-50" transform="translate(0 0.765625)"/>
       <use xlink:href="#DejaVuSans-30" transform="translate(67.319505 39.046875) scale(0.7)"/>
      </g>
     </g>
    </g>
    <g id="ytick_2">
     <g id="line2d_7">
      <path d="M 28.857173 27.158156 
L 259.2 27.158156 
" clip-path="url(#p7dc5b249c1)" style="fill: none; stroke: #b0b0b0; stroke-opacity: 0.2; stroke-width: 0.8; stroke-linecap: square"/>
     </g>
     <g id="line2d_8">
      <g>
       <use xlink:href="#mc8f07ddf99" x="28.857173" y="27.158156" style="stroke: #000000; stroke-width: 0.8"/>
      </g>
     </g>
     <g id="text_4">
      <!-- $P^+$ -->
      <g transform="translate(9.757173 30.957375) scale(0.1 -0.1)">
       <use xlink:href="#DejaVuSans-Oblique-50" transform="translate(0 0.826562)"/>
       <use xlink:href="#DejaVuSans-2b" transform="translate(80.957201 39.107812) scale(0.7)"/>
      </g>
     </g>
    </g>
   </g>
   <g id="line2d_9">
    <path d="M -1 147.81072 
L 1.21604 147.81072 
L 5.822898 147.81072 
L 10.429755 147.81072 
L 15.036613 147.81072 
L 19.643471 147.81072 
L 24.250328 147.81072 
L 28.857186 147.81072 
L 33.464044 147.81072 
L 38.070901 147.81072 
L 42.677759 147.81072 
L 47.284617 147.81072 
L 51.891474 147.81072 
L 56.498332 147.81072 
L 61.105189 147.81072 
L 65.712047 147.81072 
L 70.318899 147.81072 
L 74.925762 147.81072 
L 79.532626 147.81072 
L 84.139478 147.81072 
L 88.74633 147.81072 
L 93.353193 147.81072 
L 97.960056 147.81072 
L 102.566908 147.81072 
L 107.17376 147.81072 
L 111.780624 147.81072 
L 116.387487 147.81072 
L 120.994339 147.81072 
L 125.601191 147.81072 
L 130.208054 147.81072 
L 134.814917 147.81072 
L 139.421769 147.81072 
L 144.028622 147.81072 
L 148.635485 147.81072 
L 153.242348 147.81072 
L 157.8492 147.81072 
L 162.456052 147.81072 
L 167.062904 147.81072 
L 171.669778 147.81072 
L 176.276631 147.81072 
L 180.883483 147.81072 
L 185.490357 147.81072 
L 190.097209 147.81072 
L 194.704061 147.81072 
L 199.310913 147.81072 
L 203.917765 147.81072 
L 208.52464 147.81072 
L 213.131492 147.81072 
L 217.738344 147.81072 
L 222.345218 147.81072 
L 226.95207 147.81072 
L 231.558922 147.81072 
L 236.165774 147.81072 
L 240.772627 147.81072 
L 245.379501 147.81072 
L 249.986353 147.81072 
L 254.593205 147.81072 
L 259.200079 147.81072 
L 263.806931 147.81072 
L 268.413783 147.81072 
L 271 147.81072 
" clip-path="url(#p7dc5b249c1)" style="fill: none; stroke: #463480; stroke-width: 2; stroke-linecap: square"/>
   </g>
   <g id="line2d_10">
    <path d="M -1 147.585035 
L 1.21604 147.582045 
L 5.822898 147.573706 
L 10.429755 147.563711 
L 15.036613 147.550363 
L 19.643471 147.534598 
L 24.250328 147.515589 
L 28.857186 147.492233 
L 33.464044 147.461841 
L 38.070901 147.419414 
L 42.677759 147.36198 
L 47.284617 147.290602 
L 51.891474 147.202904 
L 56.498332 147.089992 
L 61.105189 146.939959 
L 65.712047 146.742208 
L 70.318899 146.500378 
L 74.925762 146.214751 
L 79.532626 145.904719 
L 84.139478 145.578121 
L 88.74633 145.238676 
L 93.353193 144.890638 
L 97.960056 144.537645 
L 102.566908 144.182263 
L 107.17376 143.824173 
L 111.780624 143.464721 
L 116.387487 143.104291 
L 120.994339 142.743362 
L 125.601191 142.382141 
L 130.208054 142.020869 
L 134.814917 141.659565 
L 139.421769 141.298257 
L 144.028622 140.936946 
L 148.635485 140.575612 
L 153.242348 140.21425 
L 157.8492 139.852829 
L 162.456052 139.491335 
L 167.062904 139.129773 
L 171.669778 138.768147 
L 176.276631 138.406486 
L 180.883483 138.044796 
L 185.490357 137.68302 
L 190.097209 137.321135 
L 194.704061 136.95925 
L 199.310913 136.597364 
L 203.917765 136.235468 
L 208.52464 135.873469 
L 213.131492 135.511444 
L 217.738344 135.149404 
L 222.345218 134.787346 
L 226.95207 134.425272 
L 231.558922 134.0632 
L 236.165774 133.701125 
L 240.772627 133.339052 
L 245.379501 132.976966 
L 249.986353 132.614859 
L 254.593205 132.252753 
L 259.200079 131.890606 
L 263.806931 131.528415 
L 268.413783 131.166222 
L 271 130.962895 
" clip-path="url(#p7dc5b249c1)" style="fill: none; stroke: #30698e; stroke-width: 2; stroke-linecap: square"/>
   </g>
   <g id="line2d_11">
    <path d="M -1 147.019711 
L 1.21604 147.000545 
L 5.822898 146.948077 
L 10.429755 146.885649 
L 15.036613 146.802741 
L 19.643471 146.704865 
L 24.250328 146.586537 
L 28.857186 146.440389 
L 33.464044 146.248348 
L 38.070901 145.9763 
L 42.677759 145.602883 
L 47.284617 145.13274 
L 51.891474 144.546702 
L 56.498332 143.777337 
L 61.105189 142.729155 
L 65.712047 141.312879 
L 70.318899 139.543272 
L 74.925762 137.413332 
L 79.532626 135.072228 
L 84.139478 132.581972 
L 88.74633 129.968964 
L 93.353193 127.269894 
L 97.960056 124.517191 
L 102.566908 121.736699 
L 107.17376 118.921024 
L 111.780624 116.08592 
L 116.387487 113.234688 
L 120.994339 110.373252 
L 125.601191 107.504599 
L 130.208054 104.634157 
L 134.814917 101.76086 
L 139.421769 98.886238 
L 144.028622 96.011125 
L 148.635485 93.135009 
L 153.242348 90.256171 
L 157.8492 87.375583 
L 162.456052 84.494575 
L 167.062904 81.611584 
L 171.669778 78.728118 
L 176.276631 75.84438 
L 180.883483 72.960463 
L 185.490357 70.076274 
L 190.097209 67.19196 
L 194.704061 64.307608 
L 199.310913 61.423162 
L 203.917765 58.538654 
L 208.52464 55.653835 
L 213.131492 52.768806 
L 217.738344 49.883761 
L 222.345218 46.998694 
L 226.95207 44.11361 
L 231.558922 41.228542 
L 236.165774 38.343466 
L 240.772627 35.458383 
L 245.379501 32.573276 
L 249.986353 29.688169 
L 254.593205 26.803047 
L 259.200079 23.91787 
L 263.806931 21.032631 
L 268.413783 18.147384 
L 271 16.527659 
" clip-path="url(#p7dc5b249c1)" style="fill: none; stroke: #1f968b; stroke-width: 2; stroke-linecap: square"/>
   </g>
   <g id="line2d_12">
    <path d="M -1 146.968874 
L 1.21604 146.948204 
L 5.822898 146.891633 
L 10.429755 146.824331 
L 15.036613 146.734959 
L 19.643471 146.629453 
L 24.250328 146.501894 
L 28.857186 146.344333 
L 33.464044 146.13726 
L 38.070901 145.843851 
L 42.677759 145.441023 
L 47.284617 144.933749 
L 51.891474 144.301286 
L 56.498332 143.470728 
L 61.105189 142.338759 
L 65.712047 140.808724 
L 70.318899 138.896398 
L 74.925762 136.594078 
L 79.532626 134.063073 
L 84.139478 131.37047 
L 88.74633 128.544778 
L 93.353193 125.625735 
L 97.960056 122.648468 
L 102.566908 119.641022 
L 107.17376 116.595321 
L 111.780624 113.528479 
L 116.387487 110.444079 
L 120.994339 107.348549 
L 125.601191 104.245145 
L 130.208054 101.139788 
L 134.814917 98.031301 
L 139.421769 94.921371 
L 144.028622 91.810897 
L 148.635485 88.699322 
L 153.242348 85.58478 
L 157.8492 82.468325 
L 162.456052 79.351406 
L 167.062904 76.232342 
L 171.669778 73.112733 
L 176.276631 69.992867 
L 180.883483 66.872783 
L 185.490357 63.75242 
L 190.097209 60.631916 
L 194.704061 57.511382 
L 199.310913 54.390754 
L 203.917765 51.270056 
L 208.52464 48.149015 
L 213.131492 45.027757 
L 217.738344 41.906484 
L 222.345218 38.785187 
L 226.95207 35.663882 
L 231.558922 32.54257 
L 236.165774 29.421273 
L 240.772627 26.299969 
L 245.379501 23.178641 
L 249.986353 20.057289 
L 254.593205 16.935938 
L 259.200079 13.81454 
L 263.806931 10.693049 
L 268.413783 7.571589 
L 271 5.819248 
" clip-path="url(#p7dc5b249c1)" style="fill: none; stroke: #4ac16d; stroke-width: 2; stroke-linecap: square"/>
   </g>
   <g id="line2d_13">
    <path d="M -1 146.981779 
L 1.21604 146.961426 
L 5.822898 146.905722 
L 10.429755 146.839451 
L 15.036613 146.75145 
L 19.643471 146.647561 
L 24.250328 146.521957 
L 28.857186 146.366811 
L 33.464044 146.162913 
L 38.070901 145.874001 
L 42.677759 145.477348 
L 47.284617 144.97785 
L 51.891474 144.355082 
L 56.498332 143.537256 
L 61.105189 142.422639 
L 65.712047 140.916058 
L 70.318899 139.033046 
L 74.925762 136.766018 
L 79.532626 134.273811 
L 84.139478 131.622482 
L 88.74633 128.840107 
L 93.353193 125.965807 
L 97.960056 123.034182 
L 102.566908 120.072836 
L 107.17376 117.073824 
L 111.780624 114.053995 
L 116.387487 111.016876 
L 120.994339 107.968797 
L 125.601191 104.912964 
L 130.208054 101.85521 
L 134.814917 98.794373 
L 139.421769 95.732112 
L 144.028622 92.669318 
L 148.635485 89.605451 
L 153.242348 86.538644 
L 157.8492 83.469962 
L 162.456052 80.400822 
L 167.062904 77.329558 
L 171.669778 74.257789 
L 176.276631 71.18574 
L 180.883483 68.113481 
L 185.490357 65.04095 
L 190.097209 61.968294 
L 194.704061 58.895584 
L 199.310913 55.822803 
L 203.917765 52.74993 
L 208.52464 49.676737 
L 213.131492 46.603327 
L 217.738344 43.529894 
L 222.345218 40.456445 
L 226.95207 37.38298 
L 231.558922 34.309523 
L 236.165774 31.236066 
L 240.772627 28.162602 
L 245.379501 25.089121 
L 249.986353 22.015626 
L 254.593205 18.94213 
L 259.200079 15.868572 
L 263.806931 12.794928 
L 268.413783 9.721316 
L 271 7.995837 
" clip-path="url(#p7dc5b249c1)" style="fill: none; stroke: #bddf26; stroke-width: 2; stroke-linecap: square"/>
   </g>
   <g id="line2d_14">
    <path d="M -1 195.050155 
L 1.21604 193.480955 
L 5.822898 190.218795 
L 10.429755 186.956634 
L 15.036613 183.694473 
L 19.643471 180.432312 
L 24.250328 177.170151 
L 28.857186 173.907991 
L 33.464044 170.64583 
L 38.070901 167.383669 
L 42.677759 164.121508 
L 47.284617 160.859348 
L 51.891474 157.597187 
L 56.498332 154.335026 
L 61.105189 151.072865 
L 65.712047 147.810704 
L 70.318899 144.548548 
L 74.925762 141.286383 
L 79.532626 138.024218 
L 84.139478 134.762061 
L 88.74633 131.499904 
L 93.353193 128.23774 
L 97.960056 124.975575 
L 102.566908 121.713418 
L 107.17376 118.451261 
L 111.780624 115.189097 
L 116.387487 111.926932 
L 120.994339 108.664775 
L 125.601191 105.402618 
L 130.208054 102.140454 
L 134.814917 98.878289 
L 139.421769 95.616132 
L 144.028622 92.353975 
L 148.635485 89.09181 
L 153.242348 85.829646 
L 157.8492 82.567489 
L 162.456052 79.305332 
L 167.062904 76.043175 
L 171.669778 72.781003 
L 176.276631 69.518846 
L 180.883483 66.256689 
L 185.490357 62.994516 
L 190.097209 59.73236 
L 194.704061 56.470203 
L 199.310913 53.208046 
L 203.917765 49.945889 
L 208.52464 46.683716 
L 213.131492 43.42156 
L 217.738344 40.159403 
L 222.345218 36.89723 
L 226.95207 33.635073 
L 231.558922 30.372916 
L 236.165774 27.11076 
L 240.772627 23.848603 
L 245.379501 20.58643 
L 249.986353 17.324273 
L 254.593205 14.062116 
L 259.200079 10.799944 
L 263.806931 7.537787 
L 268.413783 4.27563 
L 271 2.444305 
" clip-path="url(#p7dc5b249c1)" style="fill: none; stroke-dasharray: 1.2,1.98; stroke-dashoffset: 0; stroke: #000000; stroke-opacity: 0.6; stroke-width: 1.2"/>
   </g>
   <g id="patch_3">
    <path d="M 28.857173 173.908 
L 28.857173 10.8 
" style="fill: none; stroke: #000000; stroke-width: 0.8; stroke-linejoin: miter; stroke-linecap: square"/>
   </g>
   <g id="patch_4">
    <path d="M 28.857173 173.908 
L 259.2 173.908 
" style="fill: none; stroke: #000000; stroke-width: 0.8; stroke-linejoin: miter; stroke-linecap: square"/>
   </g>
   <g id="PathCollection_1">
    <defs>
     <path id="mf7c5113957" d="M 0 3.535534 
C 0.937635 3.535534 1.836992 3.163008 2.5 2.5 
C 3.163008 1.836992 3.535534 0.937635 3.535534 0 
C 3.535534 -0.937635 3.163008 -1.836992 2.5 -2.5 
C 1.836992 -3.163008 0.937635 -3.535534 0 -3.535534 
C -0.937635 -3.535534 -1.836992 -3.163008 -2.5 -2.5 
C -3.163008 -1.836992 -3.535534 -0.937635 -3.535534 0 
C -3.535534 0.937635 -3.163008 1.836992 -2.5 2.5 
C -1.836992 3.163008 -0.937635 3.535534 0 3.535534 
z
" style="stroke: #ffffff; stroke-width: 0.6"/>
    </defs>
    <g clip-path="url(#p7dc5b249c1)">
     <use xlink:href="#mf7c5113957" x="65.712025" y="147.81072" style="fill: #463480; stroke: #ffffff; stroke-width: 0.6"/>
    </g>
   </g>
   <g id="PathCollection_2">
    <defs>
     <path id="m7e370ab5bd" d="M -0 5 
L 3 0 
L 0 -5 
L -3 -0 
z
" style="stroke: #ffffff; stroke-width: 0.6"/>
    </defs>
    <g clip-path="url(#p7dc5b249c1)">
     <use xlink:href="#m7e370ab5bd" x="236.165774" y="147.81072" style="fill: #463480; stroke: #ffffff; stroke-width: 0.6"/>
    </g>
   </g>
   <g id="PathCollection_3">
    <defs>
     <path id="m5c18d06ea1" d="M 0 3.535534 
C 0.937635 3.535534 1.836992 3.163008 2.5 2.5 
C 3.163008 1.836992 3.535534 0.937635 3.535534 0 
C 3.535534 -0.937635 3.163008 -1.836992 2.5 -2.5 
C 1.836992 -3.163008 0.937635 -3.535534 0 -3.535534 
C -0.937635 -3.535534 -1.836992 -3.163008 -2.5 -2.5 
C -3.163008 -1.836992 -3.535534 -0.937635 -3.535534 0 
C -3.535534 0.937635 -3.163008 1.836992 -2.5 2.5 
C -1.836992 3.163008 -0.937635 3.535534 0 3.535534 
z
" style="stroke: #ffffff; stroke-width: 0.6"/>
    </defs>
    <g clip-path="url(#p7dc5b249c1)">
     <use xlink:href="#m5c18d06ea1" x="67.341806" y="146.656657" style="fill: #30698e; stroke: #ffffff; stroke-width: 0.6"/>
    </g>
   </g>
   <g id="PathCollection_4">
    <defs>
     <path id="m0724f0234b" d="M -0 5 
L 3 0 
L 0 -5 
L -3 -0 
z
" style="stroke: #ffffff; stroke-width: 0.6"/>
    </defs>
    <g clip-path="url(#p7dc5b249c1)">
     <use xlink:href="#m0724f0234b" x="236.165774" y="133.701125" style="fill: #30698e; stroke: #ffffff; stroke-width: 0.6"/>
    </g>
   </g>
   <g id="PathCollection_5">
    <defs>
     <path id="m500289013e" d="M 0 3.535534 
C 0.937635 3.535534 1.836992 3.163008 2.5 2.5 
C 3.163008 1.836992 3.535534 0.937635 3.535534 0 
C 3.535534 -0.937635 3.163008 -1.836992 2.5 -2.5 
C 1.836992 -3.163008 0.937635 -3.535534 0 -3.535534 
C -0.937635 -3.535534 -1.836992 -3.163008 -2.5 -2.5 
C -3.163008 -1.836992 -3.535534 -0.937635 -3.535534 0 
C -3.535534 0.937635 -3.163008 1.836992 -2.5 2.5 
C -1.836992 3.163008 -0.937635 3.535534 0 3.535534 
z
" style="stroke: #ffffff; stroke-width: 0.6"/>
    </defs>
    <g clip-path="url(#p7dc5b249c1)">
     <use xlink:href="#m500289013e" x="102.344246" y="121.871088" style="fill: #1f968b; stroke: #ffffff; stroke-width: 0.6"/>
    </g>
   </g>
   <g id="PathCollection_6">
    <defs>
     <path id="m2339b7fecb" d="M -0 5 
L 3 0 
L 0 -5 
L -3 -0 
z
" style="stroke: #ffffff; stroke-width: 0.6"/>
    </defs>
    <g clip-path="url(#p7dc5b249c1)">
     <use xlink:href="#m2339b7fecb" x="236.165774" y="38.343466" style="fill: #1f968b; stroke: #ffffff; stroke-width: 0.6"/>
    </g>
   </g>
   <g id="PathCollection_7">
    <defs>
     <path id="m36ec64d446" d="M 0 3.535534 
C 0.937635 3.535534 1.836992 3.163008 2.5 2.5 
C 3.163008 1.836992 3.535534 0.937635 3.535534 0 
C 3.535534 -0.937635 3.163008 -1.836992 2.5 -2.5 
C 1.836992 -3.163008 0.937635 -3.535534 0 -3.535534 
C -0.937635 -3.535534 -1.836992 -3.163008 -2.5 -2.5 
C -3.163008 -1.836992 -3.535534 -0.937635 -3.535534 0 
C -3.535534 0.937635 -3.163008 1.836992 -2.5 2.5 
C -1.836992 3.163008 -0.937635 3.535534 0 3.535534 
z
" style="stroke: #ffffff; stroke-width: 0.6"/>
    </defs>
    <g clip-path="url(#p7dc5b249c1)">
     <use xlink:href="#m36ec64d446" x="157.8492" y="82.567489" style="fill: #4ac16d; stroke: #ffffff; stroke-width: 0.6"/>
    </g>
   </g>
   <g id="PathCollection_8">
    <defs>
     <path id="m1391c32b2e" d="M -0 5 
L 3 0 
L 0 -5 
L -3 -0 
z
" style="stroke: #ffffff; stroke-width: 0.6"/>
    </defs>
    <g clip-path="url(#p7dc5b249c1)">
     <use xlink:href="#m1391c32b2e" x="236.165774" y="29.421273" style="fill: #4ac16d; stroke: #ffffff; stroke-width: 0.6"/>
    </g>
   </g>
   <g id="PathCollection_9">
    <defs>
     <path id="ma845e0cdbe" d="M 0 3.535534 
C 0.937635 3.535534 1.836992 3.163008 2.5 2.5 
C 3.163008 1.836992 3.535534 0.937635 3.535534 0 
C 3.535534 -0.937635 3.163008 -1.836992 2.5 -2.5 
C 1.836992 -3.163008 0.937635 -3.535534 0 -3.535534 
C -0.937635 -3.535534 -1.836992 -3.163008 -2.5 -2.5 
C -3.163008 -1.836992 -3.535534 -0.937635 -3.535534 0 
C -3.535534 0.937635 -3.163008 1.836992 -2.5 2.5 
C -1.836992 3.163008 -0.937635 3.535534 0 3.535534 
z
" style="stroke: #ffffff; stroke-width: 0.6"/>
    </defs>
    <g clip-path="url(#p7dc5b249c1)">
     <use xlink:href="#ma845e0cdbe" x="134.814917" y="98.878289" style="fill: #bddf26; stroke: #ffffff; stroke-width: 0.6"/>
    </g>
   </g>
   <g id="PathCollection_10">
    <defs>
     <path id="m70745f2334" d="M -0 5 
L 3 0 
L 0 -5 
L -3 -0 
z
" style="stroke: #ffffff; stroke-width: 0.6"/>
    </defs>
    <g clip-path="url(#p7dc5b249c1)">
     <use xlink:href="#m70745f2334" x="236.165774" y="31.236066" style="fill: #bddf26; stroke: #ffffff; stroke-width: 0.6"/>
    </g>
   </g>
  </g>
 </g>
 <defs>
  <clipPath id="p7dc5b249c1">
   <rect x="28.857173" y="10.8" width="230.342827" height="163.108"/>
  </clipPath>
 </defs>
</svg>
