<?xml version="1.0" encoding="utf-8" standalone="no"?>
<!DOCTYPE svg PUBLIC "-//W3C//DTD SVG 1.1//EN"
  "http://www.w3.org/Graphics/SVG/1.1/DTD/svg11.dtd">
<svg xmlns:xlink="http://www.w3.org/1999/xlink" width="594pt" height="243pt" viewBox="0 0 594 243" xmlns="http://www.w3.org/2000/svg" version="1.1">
 <metadata>
  <rdf:RDF xmlns:dc="http://purl.org/dc/elements/1.1/" xmlns:cc="http://creativecommons.org/ns#" xmlns:rdf="http://www.w3.org/1999/02/22-rdf-syntax-ns#">
   <cc:Work>
    <dc:type rdf:resource="http://purl.org/dc/dcmitype/StillImage"/>
    <dc:date>2026-04-28T19:57:08.968852</dc:date>
    <dc:format>image/svg+xml</dc:format>
    <dc:creator>
     <cc:Agent>
      <dc:title>Matplotlib v3.9.2, https://matplotlib.org/</dc:title>
     </cc:Agent>
    </dc:creator>
   </cc:Work>
  </rdf:RDF>
 </metadata>
 <defs>
  <style type="text/css">*{stroke-linejoin: round; stroke-linecap: butt}</style>
 </defs>
 <g id="figure_1">
  <g id="patch_1">
   <path d="M 0 243 
L 594 243 
L 594 0 
L 0 0 
z
" style="fill: #ffffff"/>
  </g>
  <g id="axes_1">
   <g id="patch_2">
    <path d="M 43.657173 200.508 
L 291.6 200.508 
L 291.6 37.968 
L 43.657173 37.968 
z
" style="fill: #ffffff"/>
   </g>
   <g id="matplotlib.axis_1">
    <g id="xtick_1">
     <g id="line2d_1">
      <path d="M 83.328025 200.508 
L 83.328025 37.968 
" clip-path="url(#pe123f3a426)" style="fill: none; stroke: #b0b0b0; stroke-opacity: 0.2; stroke-width: 0.8; stroke-linecap: square"/>
     </g>
     <g id="line2d_2">
      <defs>
       <path id="m2a5df813da" d="M 0 0 
L 0 -3.5 
" style="stroke: #000000; stroke-width: 0.8"/>
      </defs>
      <g>
       <use xlink:href="#m2a5df813da" x="83.328025" y="200.508" style="stroke: #000000; stroke-width: 0.8"/>
      </g>
     </g>
     <g id="text_1">
      <!-- $P^0$ -->
      <g transform="translate(77.578025 211.606437) scale(0.1 -0.1)">
       <defs>
        <path id="DejaVuSans-Oblique-50" d="M 1081 4666 
L 2541 4666 
Q 3178 4666 3512 4369 
Q 3847 4072 3847 3500 
Q 3847 2731 3353 2303 
Q 2859 1875 1966 1875 
L 1172 1875 
L 806 0 
L 172 0 
L 1081 4666 
z
M 1613 4147 
L 1275 2394 
L 2069 2394 
Q 2606 2394 2893 2669 
Q 3181 2944 3181 3456 
Q 3181 3784 2986 3965 
Q 2791 4147 2438 4147 
L 1613 4147 
z
" transform="scale(0.015625)"/>
        <path id="DejaVuSans-30" d="M 2034 4250 
Q 1547 4250 1301 3770 
Q 1056 3291 1056 2328 
Q 1056 1369 1301 889 
Q 1547 409 2034 409 
Q 2525 409 2770 889 
Q 3016 1369 3016 2328 
Q 3016 3291 2770 3770 
Q 2525 4250 2034 4250 
z
M 2034 4750 
Q 2819 4750 3233 4129 
Q 3647 3509 3647 2328 
Q 3647 1150 3233 529 
Q 2819 -91 2034 -91 
Q 1250 -91 836 529 
Q 422 1150 422 2328 
Q 422 3509 836 4129 
Q 1250 4750 2034 4750 
z
" transform="scale(0.015625)"/>
       </defs>
       <use xlink:href="#DejaVuSans-Oblique-50" transform="translate(0 0.765625)"/>
       <use xlink:href="#DejaVuSans-30" transform="translate(67.319505 39.046875) scale(0.7)"/>
      </g>
     </g>
    </g>
    <g id="xtick_2">
     <g id="line2d_3">
      <path d="M 268.288575 200.508 
L 268.288575 37.968 
" clip-path="url(#pe123f3a426)" style="fill: none; stroke: #b0b0b0; stroke-opacity: 0.2; stroke-width: 0.8; stroke-linecap: square"/>
     </g>
     <g id="line2d_4">
      <g>
       <use xlink:href="#m2a5df813da" x="268.288575" y="200.508" style="stroke: #000000; stroke-width: 0.8"/>
      </g>
     </g>
     <g id="text_2">
      <!-- $P^+$ -->
      <g transform="translate(260.488575 211.606437) scale(0.1 -0.1)">
       <defs>
        <path id="DejaVuSans-2b" d="M 2944 4013 
L 2944 2272 
L 4684 2272 
L 4684 1741 
L 2944 1741 
L 2944 0 
L 2419 0 
L 2419 1741 
L 678 1741 
L 678 2272 
L 2419 2272 
L 2419 4013 
L 2944 4013 
z
" transform="scale(0.015625)"/>
       </defs>
       <use xlink:href="#DejaVuSans-Oblique-50" transform="translate(0 0.826562)"/>
       <use xlink:href="#DejaVuSans-2b" transform="translate(80.957201 39.107812) scale(0.7)"/>
      </g>
     </g>
    </g>
    <g id="text_3">
     <!-- input -->
     <g transform="translate(153.481555 226.044406) scale(0.11 -0.11)">
      <defs>
       <path id="DejaVuSans-69" d="M 603 3500 
L 1178 3500 
L 1178 0 
L 603 0 
L 603 3500 
z
M 603 4863 
L 1178 4863 
L 1178 4134 
L 603 4134 
L 603 4863 
z
" transform="scale(0.015625)"/>
       <path id="DejaVuSans-6e" d="M 3513 2113 
L 3513 0 
L 2938 0 
L 2938 2094 
Q 2938 2591 2744 2837 
Q 2550 3084 2163 3084 
Q 1697 3084 1428 2787 
Q 1159 2491 1159 1978 
L 1159 0 
L 581 0 
L 581 3500 
L 1159 3500 
L 1159 2956 
Q 1366 3272 1645 3428 
Q 1925 3584 2291 3584 
Q 2894 3584 3203 3211 
Q 3513 2838 3513 2113 
z
" transform="scale(0.015625)"/>
       <path id="DejaVuSans-70" d="M 1159 525 
L 1159 -1331 
L 581 -1331 
L 581 3500 
L 1159 3500 
L 1159 2969 
Q 1341 3281 1617 3432 
Q 1894 3584 2278 3584 
Q 2916 3584 3314 3078 
Q 3713 2572 3713 1747 
Q 3713 922 3314 415 
Q 2916 -91 2278 -91 
Q 1894 -91 1617 61 
Q 1341 213 1159 525 
z
M 3116 1747 
Q 3116 2381 2855 2742 
Q 2594 3103 2138 3103 
Q 1681 3103 1420 2742 
Q 1159 2381 1159 1747 
Q 1159 1113 1420 752 
Q 1681 391 2138 391 
Q 2594 391 2855 752 
Q 3116 1113 3116 1747 
z
" transform="scale(0.015625)"/>
       <path id="DejaVuSans-75" d="M 544 1381 
L 544 3500 
L 1119 3500 
L 1119 1403 
Q 1119 906 1312 657 
Q 1506 409 1894 409 
Q 2359 409 2629 706 
Q 2900 1003 2900 1516 
L 2900 3500 
L 3475 3500 
L 3475 0 
L 2900 0 
L 2900 538 
Q 2691 219 2414 64 
Q 2138 -91 1772 -91 
Q 1169 -91 856 284 
Q 544 659 544 1381 
z
M 1991 3584 
L 1991 3584 
z
" transform="scale(0.015625)"/>
       <path id="DejaVuSans-74" d="M 1172 4494 
L 1172 3500 
L 2356 3500 
L 2356 3053 
L 1172 3053 
L 1172 1153 
Q 1172 725 1289 603 
Q 1406 481 1766 481 
L 2356 481 
L 2356 0 
L 1766 0 
Q 1100 0 847 248 
Q 594 497 594 1153 
L 594 3053 
L 172 3053 
L 172 3500 
L 594 3500 
L 594 4494 
L 1172 4494 
z
" transform="scale(0.015625)"/>
      </defs>
      <use xlink:href="#DejaVuSans-69"/>
      <use xlink:href="#DejaVuSans-6e" x="27.783203"/>
      <use xlink:href="#DejaVuSans-70" x="91.162109"/>
      <use xlink:href="#DejaVuSans-75" x="154.638672"/>
      <use xlink:href="#DejaVuSans-74" x="218.017578"/>
     </g>
    </g>
   </g>
   <g id="matplotlib.axis_2">
    <g id="ytick_1">
     <g id="line2d_5">
      <path d="M 43.657173 174.5016 
L 291.6 174.5016 
" clip-path="url(#pe123f3a426)" style="fill: none; stroke: #b0b0b0; stroke-opacity: 0.2; stroke-width: 0.8; stroke-linecap: square"/>
     </g>
     <g id="line2d_6">
      <defs>
       <path id="mcd23a04371" d="M 0 0 
L 3.5 0 
" style="stroke: #000000; stroke-width: 0.8"/>
      </defs>
      <g>
       <use xlink:href="#mcd23a04371" x="43.657173" y="174.5016" style="stroke: #000000; stroke-width: 0.8"/>
      </g>
     </g>
     <g id="text_4">
      <!-- $P^0$ -->
      <g transform="translate(28.657173 178.300819) scale(0.1 -0.1)">
       <use xlink:href="#DejaVuSans-Oblique-50" transform="translate(0 0.765625)"/>
       <use xlink:href="#DejaVuSans-30" transform="translate(67.319505 39.046875) scale(0.7)"/>
      </g>
     </g>
    </g>
    <g id="ytick_2">
     <g id="line2d_7">
      <path d="M 43.657173 53.249906 
L 291.6 53.249906 
" clip-path="url(#pe123f3a426)" style="fill: none; stroke: #b0b0b0; stroke-opacity: 0.2; stroke-width: 0.8; stroke-linecap: square"/>
     </g>
     <g id="line2d_8">
      <g>
       <use xlink:href="#mcd23a04371" x="43.657173" y="53.249906" style="stroke: #000000; stroke-width: 0.8"/>
      </g>
     </g>
     <g id="text_5">
      <!-- $P^+$ -->
      <g transform="translate(24.557173 57.049125) scale(0.1 -0.1)">
       <use xlink:href="#DejaVuSans-Oblique-50" transform="translate(0 0.826562)"/>
       <use xlink:href="#DejaVuSans-2b" transform="translate(80.957201 39.107812) scale(0.7)"/>
      </g>
     </g>
    </g>
    <g id="text_6">
     <!-- output -->
     <g transform="translate(18.269517 137.378547) rotate(-90) scale(0.11 -0.11)">
      <defs>
       <path id="DejaVuSans-6f" d="M 1959 3097 
Q 1497 3097 1228 2736 
Q 959 2375 959 1747 
Q 959 1119 1226 758 
Q 1494 397 1959 397 
Q 2419 397 2687 759 
Q 2956 1122 2956 1747 
Q 2956 2369 2687 2733 
Q 2419 3097 1959 3097 
z
M 1959 3584 
Q 2709 3584 3137 3096 
Q 3566 2609 3566 1747 
Q 3566 888 3137 398 
Q 2709 -91 1959 -91 
Q 1206 -91 779 398 
Q 353 888 353 1747 
Q 353 2609 779 3096 
Q 1206 3584 1959 3584 
z
" transform="scale(0.015625)"/>
      </defs>
      <use xlink:href="#DejaVuSans-6f"/>
      <use xlink:href="#DejaVuSans-75" x="61.181641"/>
      <use xlink:href="#DejaVuSans-74" x="124.560547"/>
      <use xlink:href="#DejaVuSans-70" x="163.769531"/>
      <use xlink:href="#DejaVuSans-75" x="227.246094"/>
      <use xlink:href="#DejaVuSans-74" x="290.625"/>
     </g>
    </g>
   </g>
   <g id="line2d_9">
    <path d="M -1 174.5016 
L -0.972533 174.5016 
L 3.986325 174.5016 
L 8.945183 174.5016 
L 13.904041 174.5016 
L 18.862898 174.5016 
L 23.821756 174.5016 
L 28.780614 174.5016 
L 33.739471 174.5016 
L 38.698329 174.5016 
L 43.657187 174.5016 
L 48.616045 174.5016 
L 53.574902 174.5016 
L 58.53376 174.5016 
L 63.492618 174.5016 
L 68.451476 174.5016 
L 73.410333 174.5016 
L 78.369191 174.5016 
L 83.328049 174.5016 
L 88.286901 174.5016 
L 93.245764 174.5016 
L 98.204628 174.5016 
L 103.16348 174.5016 
L 108.122331 174.5016 
L 113.081195 174.5016 
L 118.040059 174.5016 
L 122.998911 174.5016 
L 127.957762 174.5016 
L 132.916626 174.5016 
L 137.87549 174.5016 
L 142.834341 174.5016 
L 147.793193 174.5016 
L 152.752057 174.5016 
L 157.710921 174.5016 
L 162.669772 174.5016 
L 167.628624 174.5016 
L 172.587488 174.5016 
L 177.546351 174.5016 
L 182.505203 174.5016 
L 187.464055 174.5016 
L 192.422907 174.5016 
L 197.381782 174.5016 
L 202.340634 174.5016 
L 207.299486 174.5016 
L 212.258361 174.5016 
L 217.217213 174.5016 
L 222.176065 174.5016 
L 227.134917 174.5016 
L 232.093769 174.5016 
L 237.052644 174.5016 
L 242.011496 174.5016 
L 246.970348 174.5016 
L 251.929223 174.5016 
L 256.888075 174.5016 
L 261.846927 174.5016 
L 266.805779 174.5016 
L 271.764631 174.5016 
L 276.723506 174.5016 
L 281.682358 174.5016 
L 286.64121 174.5016 
L 291.600085 174.5016 
L 296.558937 174.5016 
L 301.517789 174.5016 
L 306.476641 174.5016 
L 311.435492 174.5016 
L 316.394368 174.5016 
L 321.35322 174.5016 
L 326.312071 174.5016 
L 331.270947 174.5016 
L 336.229799 174.5016 
L 341.188651 174.5016 
L 346.147502 174.5016 
L 351.106354 174.5016 
L 356.06523 174.5016 
L 361.024081 174.5016 
L 365.982933 174.5016 
L 370.941809 174.5016 
L 375.900661 174.5016 
L 380.859512 174.5016 
" clip-path="url(#pe123f3a426)" style="fill: none; stroke: #463480; stroke-width: 2; stroke-linecap: square"/>
   </g>
   <g id="line2d_10">
    <path d="M -1 172.757165 
L -0.972533 172.75741 
L 3.986325 172.800594 
L 8.945183 172.842757 
L 13.904041 172.880875 
L 18.862898 172.915061 
L 23.821756 172.944154 
L 28.780614 172.96734 
L 33.739471 172.985647 
L 38.698329 172.99571 
L 43.657187 172.994879 
L 48.616045 172.977498 
L 53.574902 172.931119 
L 58.53376 172.856175 
L 63.492618 172.752231 
L 68.451476 172.611438 
L 73.410333 172.419008 
L 78.369191 172.14723 
L 83.328049 171.778824 
L 88.286901 171.319706 
L 93.245764 170.760819 
L 98.204628 170.142516 
L 103.16348 169.477242 
L 108.122331 168.774759 
L 113.081195 168.039916 
L 118.040059 167.285093 
L 122.998911 166.517526 
L 127.957762 165.737522 
L 132.916626 164.947741 
L 137.87549 164.151752 
L 142.834341 163.350108 
L 147.793193 162.542995 
L 152.752057 161.734333 
L 157.710921 160.924558 
L 162.669772 160.113595 
L 167.628624 159.302276 
L 172.587488 158.490768 
L 177.546351 157.678581 
L 182.505203 156.86542 
L 187.464055 156.051547 
L 192.422907 155.237212 
L 197.381782 154.422023 
L 202.340634 153.60653 
L 207.299486 152.790829 
L 212.258361 151.975007 
L 217.217213 151.158899 
L 222.176065 150.342393 
L 227.134917 149.525882 
L 232.093769 148.709344 
L 237.052644 147.892781 
L 242.011496 147.075994 
L 246.970348 146.258989 
L 251.929223 145.44195 
L 256.888075 144.624893 
L 261.846927 143.807762 
L 266.805779 142.990634 
L 271.764631 142.173507 
L 276.723506 141.356372 
L 281.682358 140.53924 
L 286.64121 139.722065 
L 291.600085 138.904859 
L 296.558937 138.087652 
L 301.517789 137.270326 
L 306.476641 136.452934 
L 311.435492 135.635546 
L 316.394368 134.818154 
L 321.35322 134.000513 
L 326.312071 133.18278 
L 331.270947 132.364787 
L 336.229799 131.546771 
L 341.188651 130.728751 
L 346.147502 129.910607 
L 351.106354 129.092355 
L 356.06523 128.274102 
L 361.024081 127.455854 
L 365.982933 126.637601 
L 370.941809 125.819345 
L 375.900661 125.001034 
L 380.859512 124.182732 
" clip-path="url(#pe123f3a426)" style="fill: none; stroke: #30698e; stroke-width: 2; stroke-linecap: square"/>
   </g>
   <g id="line2d_11">
    <path d="M -1 172.297957 
L -0.972533 172.298075 
L 3.986325 172.316561 
L 8.945183 172.332043 
L 13.904041 172.335525 
L 18.862898 172.327245 
L 23.821756 172.303519 
L 28.780614 172.261755 
L 33.739471 172.204895 
L 38.698329 172.122202 
L 43.657187 172.00486 
L 48.616045 171.834085 
L 53.574902 171.568252 
L 58.53376 171.207568 
L 63.492618 170.7485 
L 68.451476 170.161837 
L 73.410333 169.393025 
L 78.369191 168.336705 
L 83.328049 166.922393 
L 88.286901 165.165881 
L 93.245764 163.041481 
L 98.204628 160.706852 
L 103.16348 158.208396 
L 108.122331 155.585408 
L 113.081195 152.85556 
L 118.040059 150.064802 
L 122.998911 147.235972 
L 127.957762 144.371697 
L 132.916626 141.476734 
L 137.87549 138.56315 
L 142.834341 135.635271 
L 147.793193 132.694145 
L 152.752057 129.748374 
L 157.710921 126.800025 
L 162.669772 123.848483 
L 167.628624 120.895934 
L 172.587488 117.942803 
L 177.546351 114.987835 
L 182.505203 112.029682 
L 187.464055 109.069863 
L 192.422907 106.109214 
L 197.381782 103.146147 
L 202.340634 100.182553 
L 207.299486 97.218571 
L 212.258361 94.254342 
L 217.217213 91.289702 
L 222.176065 88.324627 
L 227.134917 85.359538 
L 232.093769 82.394347 
L 237.052644 79.429118 
L 242.011496 76.463532 
L 246.970348 73.497558 
L 251.929223 70.531531 
L 256.888075 67.565488 
L 261.846927 64.599383 
L 266.805779 61.633277 
L 271.764631 58.667172 
L 276.723506 55.701052 
L 281.682358 52.734947 
L 286.64121 49.768779 
L 291.600085 46.802581 
L 296.558937 43.836383 
L 301.517789 40.870046 
L 306.476641 37.903615 
L 311.435492 34.9372 
L 316.394368 31.970769 
L 321.35322 29.004013 
L 326.312071 26.037117 
L 331.270947 23.069881 
L 336.229799 20.102613 
L 341.188651 17.135345 
L 346.147502 14.167876 
L 351.106354 11.200283 
L 356.06523 8.232643 
L 361.024081 5.265034 
L 365.982933 2.297426 
L 370.941809 -0.670214 
L 371.492861 -1 
" clip-path="url(#pe123f3a426)" style="fill: none; stroke: #1f968b; stroke-width: 2; stroke-linecap: square"/>
   </g>
   <g id="line2d_12">
    <path d="M -1 172.285836 
L -0.972533 172.28594 
L 3.986325 172.301935 
L 8.945183 172.314788 
L 13.904041 172.315078 
L 18.862898 172.303053 
L 23.821756 172.27485 
L 28.780614 172.227749 
L 33.739471 172.164827 
L 38.698329 172.074822 
L 43.657187 171.948475 
L 48.616045 171.766065 
L 53.574902 171.483875 
L 58.53376 171.102086 
L 63.492618 170.616935 
L 68.451476 169.997662 
L 73.410333 169.186834 
L 78.369191 168.073456 
L 83.328049 166.58316 
L 88.286901 164.73242 
L 93.245764 162.494388 
L 98.204628 160.035253 
L 103.16348 157.403879 
L 108.122331 154.641715 
L 113.081195 151.767363 
L 118.040059 148.829202 
L 122.998911 145.851179 
L 127.957762 142.8361 
L 132.916626 139.788843 
L 137.87549 136.72209 
L 142.834341 133.640452 
L 147.793193 130.545033 
L 152.752057 127.444751 
L 157.710921 124.341795 
L 162.669772 121.235503 
L 167.628624 118.128164 
L 172.587488 115.020213 
L 177.546351 111.910347 
L 182.505203 108.79713 
L 187.464055 105.682192 
L 192.422907 102.566385 
L 197.381782 99.448068 
L 202.340634 96.329208 
L 207.299486 93.209961 
L 212.258361 90.090426 
L 217.217213 86.970489 
L 222.176065 83.850133 
L 227.134917 80.729746 
L 232.093769 77.609251 
L 237.052644 74.488725 
L 242.011496 71.367834 
L 246.970348 68.246548 
L 251.929223 65.125201 
L 256.888075 62.003853 
L 261.846927 58.882435 
L 266.805779 55.76101 
L 271.764631 52.639584 
L 276.723506 49.518159 
L 281.682358 46.396726 
L 286.64121 43.275246 
L 291.600085 40.153728 
L 296.558937 37.032225 
L 301.517789 33.910583 
L 306.476641 30.788832 
L 311.435492 27.667096 
L 316.394368 24.545345 
L 321.35322 21.423269 
L 326.312071 18.301069 
L 331.270947 15.178512 
L 336.229799 12.055908 
L 341.188651 8.93332 
L 346.147502 5.810515 
L 351.106354 2.687586 
L 356.06523 -0.435374 
L 356.961791 -1 
" clip-path="url(#pe123f3a426)" style="fill: none; stroke: #4ac16d; stroke-width: 2; stroke-linecap: square"/>
   </g>
   <g id="line2d_13">
    <path d="M -1 172.316971 
L -0.972533 172.317074 
L 3.986325 172.332844 
L 8.945183 172.345517 
L 13.904041 172.345803 
L 18.862898 172.333947 
L 23.821756 172.30614 
L 28.780614 172.259701 
L 33.739471 172.197663 
L 38.698329 172.108922 
L 43.657187 171.984351 
L 48.616045 171.804504 
L 53.574902 171.526279 
L 58.53376 171.149855 
L 63.492618 170.671522 
L 68.451476 170.06095 
L 73.410333 169.261516 
L 78.369191 168.163782 
L 83.328049 166.694428 
L 88.286901 164.869694 
L 93.245764 162.663111 
L 98.204628 160.238532 
L 103.16348 157.644134 
L 108.122331 154.920782 
L 113.081195 152.086821 
L 118.040059 149.189946 
L 122.998911 146.253767 
L 127.957762 143.281053 
L 132.916626 140.276622 
L 137.87549 137.252957 
L 142.834341 134.214621 
L 147.793193 131.162699 
L 152.752057 128.105986 
L 157.710921 125.046631 
L 162.669772 121.983981 
L 167.628624 118.920305 
L 172.587488 115.856032 
L 177.546351 112.789868 
L 182.505203 109.720394 
L 187.464055 106.649223 
L 192.422907 103.577207 
L 197.381782 100.502696 
L 202.340634 97.427665 
L 207.299486 94.352246 
L 212.258361 91.276557 
L 217.217213 88.200464 
L 222.176065 85.123945 
L 227.134917 82.047411 
L 232.093769 78.970768 
L 237.052644 75.894094 
L 242.011496 72.817048 
L 246.970348 69.739615 
L 251.929223 66.662135 
L 256.888075 63.584639 
L 261.846927 60.507082 
L 266.805779 57.429524 
L 271.764631 54.351967 
L 276.723506 51.274394 
L 281.682358 48.196836 
L 286.64121 45.119217 
L 291.600085 42.041551 
L 296.558937 38.963916 
L 301.517789 35.886126 
L 306.476641 32.808258 
L 311.435492 29.730391 
L 316.394368 26.652508 
L 321.35322 23.574315 
L 326.312071 20.495967 
L 331.270947 17.417278 
L 336.229799 14.338558 
L 341.188651 11.259838 
L 346.147502 8.180932 
L 351.106354 5.101871 
L 356.06523 2.02281 
L 360.933488 -1 
" clip-path="url(#pe123f3a426)" style="fill: none; stroke: #bddf26; stroke-width: 2; stroke-linecap: square"/>
   </g>
   <g id="line2d_14">
    <path d="M -1 229.783204 
L -0.972533 229.765198 
L 3.986325 226.514397 
L 8.945183 223.263596 
L 13.904041 220.012795 
L 18.862898 216.761995 
L 23.821756 213.511194 
L 28.780614 210.260393 
L 33.739471 207.009592 
L 38.698329 203.758791 
L 43.657187 200.507991 
L 48.616045 197.25719 
L 53.574902 194.006389 
L 58.53376 190.755588 
L 63.492618 187.504788 
L 68.451476 184.253987 
L 73.410333 181.003186 
L 78.369191 177.752385 
L 83.328049 174.501584 
L 88.286901 171.250788 
L 93.245764 167.999983 
L 98.204628 164.749178 
L 103.16348 161.498381 
L 108.122331 158.247584 
L 113.081195 154.99678 
L 118.040059 151.745975 
L 122.998911 148.495178 
L 127.957762 145.244381 
L 132.916626 141.993577 
L 137.87549 138.742772 
L 142.834341 135.491975 
L 147.793193 132.241178 
L 152.752057 128.990374 
L 157.710921 125.739569 
L 162.669772 122.488772 
L 167.628624 119.237975 
L 172.587488 115.987171 
L 177.546351 112.736366 
L 182.505203 109.485569 
L 187.464055 106.234772 
L 192.422907 102.983975 
L 197.381782 99.733163 
L 202.340634 96.482366 
L 207.299486 93.231569 
L 212.258361 89.980757 
L 217.217213 86.72996 
L 222.176065 83.479163 
L 227.134917 80.228366 
L 232.093769 76.977569 
L 237.052644 73.726757 
L 242.011496 70.47596 
L 246.970348 67.225163 
L 251.929223 63.97435 
L 256.888075 60.723553 
L 261.846927 57.472757 
L 266.805779 54.22196 
L 271.764631 50.971163 
L 276.723506 47.72035 
L 281.682358 44.469553 
L 286.64121 41.218757 
L 291.600085 37.967944 
L 296.558937 34.717147 
L 301.517789 31.46635 
L 306.476641 28.215553 
L 311.435492 24.964757 
L 316.394368 21.713944 
L 321.35322 18.463147 
L 326.312071 15.21235 
L 331.270947 11.961538 
L 336.229799 8.710741 
L 341.188651 5.459944 
L 346.147502 2.209147 
L 351.042821 -1 
" clip-path="url(#pe123f3a426)" style="fill: none; stroke-dasharray: 1.2,1.98; stroke-dashoffset: 0; stroke: #000000; stroke-opacity: 0.6; stroke-width: 1.2"/>
   </g>
   <g id="patch_3">
    <path d="M 43.657173 200.508 
L 43.657173 37.968 
" style="fill: none; stroke: #000000; stroke-width: 0.8; stroke-linejoin: miter; stroke-linecap: square"/>
   </g>
   <g id="patch_4">
    <path d="M 43.657173 200.508 
L 291.6 200.508 
" style="fill: none; stroke: #000000; stroke-width: 0.8; stroke-linejoin: miter; stroke-linecap: square"/>
   </g>
   <g id="text_7">
    <!-- feed-forward  -->
    <g transform="translate(127.247649 18.530625) scale(0.12 -0.12)">
     <defs>
      <path id="DejaVuSans-66" d="M 2375 4863 
L 2375 4384 
L 1825 4384 
Q 1516 4384 1395 4259 
Q 1275 4134 1275 3809 
L 1275 3500 
L 2222 3500 
L 2222 3053 
L 1275 3053 
L 1275 0 
L 697 0 
L 697 3053 
L 147 3053 
L 147 3500 
L 697 3500 
L 697 3744 
Q 697 4328 969 4595 
Q 1241 4863 1831 4863 
L 2375 4863 
z
" transform="scale(0.015625)"/>
      <path id="DejaVuSans-65" d="M 3597 1894 
L 3597 1613 
L 953 1613 
Q 991 1019 1311 708 
Q 1631 397 2203 397 
Q 2534 397 2845 478 
Q 3156 559 3463 722 
L 3463 178 
Q 3153 47 2828 -22 
Q 2503 -91 2169 -91 
Q 1331 -91 842 396 
Q 353 884 353 1716 
Q 353 2575 817 3079 
Q 1281 3584 2069 3584 
Q 2775 3584 3186 3129 
Q 3597 2675 3597 1894 
z
M 3022 2063 
Q 3016 2534 2758 2815 
Q 2500 3097 2075 3097 
Q 1594 3097 1305 2825 
Q 1016 2553 972 2059 
L 3022 2063 
z
" transform="scale(0.015625)"/>
      <path id="DejaVuSans-64" d="M 2906 2969 
L 2906 4863 
L 3481 4863 
L 3481 0 
L 2906 0 
L 2906 525 
Q 2725 213 2448 61 
Q 2172 -91 1784 -91 
Q 1150 -91 751 415 
Q 353 922 353 1747 
Q 353 2572 751 3078 
Q 1150 3584 1784 3584 
Q 2172 3584 2448 3432 
Q 2725 3281 2906 2969 
z
M 947 1747 
Q 947 1113 1208 752 
Q 1469 391 1925 391 
Q 2381 391 2643 752 
Q 2906 1113 2906 1747 
Q 2906 2381 2643 2742 
Q 2381 3103 1925 3103 
Q 1469 3103 1208 2742 
Q 947 2381 947 1747 
z
" transform="scale(0.015625)"/>
      <path id="DejaVuSans-2d" d="M 313 2009 
L 1997 2009 
L 1997 1497 
L 313 1497 
L 313 2009 
z
" transform="scale(0.015625)"/>
      <path id="DejaVuSans-72" d="M 2631 2963 
Q 2534 3019 2420 3045 
Q 2306 3072 2169 3072 
Q 1681 3072 1420 2755 
Q 1159 2438 1159 1844 
L 1159 0 
L 581 0 
L 581 3500 
L 1159 3500 
L 1159 2956 
Q 1341 3275 1631 3429 
Q 1922 3584 2338 3584 
Q 2397 3584 2469 3576 
Q 2541 3569 2628 3553 
L 2631 2963 
z
" transform="scale(0.015625)"/>
      <path id="DejaVuSans-77" d="M 269 3500 
L 844 3500 
L 1563 769 
L 2278 3500 
L 2956 3500 
L 3675 769 
L 4391 3500 
L 4966 3500 
L 4050 0 
L 3372 0 
L 2619 2869 
L 1863 0 
L 1184 0 
L 269 3500 
z
" transform="scale(0.015625)"/>
      <path id="DejaVuSans-61" d="M 2194 1759 
Q 1497 1759 1228 1600 
Q 959 1441 959 1056 
Q 959 750 1161 570 
Q 1363 391 1709 391 
Q 2188 391 2477 730 
Q 2766 1069 2766 1631 
L 2766 1759 
L 2194 1759 
z
M 3341 1997 
L 3341 0 
L 2766 0 
L 2766 531 
Q 2569 213 2275 61 
Q 1981 -91 1556 -91 
Q 1019 -91 701 211 
Q 384 513 384 1019 
Q 384 1609 779 1909 
Q 1175 2209 1959 2209 
L 2766 2209 
L 2766 2266 
Q 2766 2663 2505 2880 
Q 2244 3097 1772 3097 
Q 1472 3097 1187 3025 
Q 903 2953 641 2809 
L 641 3341 
Q 956 3463 1253 3523 
Q 1550 3584 1831 3584 
Q 2591 3584 2966 3190 
Q 3341 2797 3341 1997 
z
" transform="scale(0.015625)"/>
      <path id="DejaVuSans-20" transform="scale(0.015625)"/>
     </defs>
     <use xlink:href="#DejaVuSans-66"/>
     <use xlink:href="#DejaVuSans-65" x="35.205078"/>
     <use xlink:href="#DejaVuSans-65" x="96.728516"/>
     <use xlink:href="#DejaVuSans-64" x="158.251953"/>
     <use xlink:href="#DejaVuSans-2d" x="221.728516"/>
     <use xlink:href="#DejaVuSans-66" x="257.8125"/>
     <use xlink:href="#DejaVuSans-6f" x="293.017578"/>
     <use xlink:href="#DejaVuSans-72" x="354.199219"/>
     <use xlink:href="#DejaVuSans-77" x="395.3125"/>
     <use xlink:href="#DejaVuSans-61" x="477.099609"/>
     <use xlink:href="#DejaVuSans-72" x="538.378906"/>
     <use xlink:href="#DejaVuSans-64" x="577.742188"/>
     <use xlink:href="#DejaVuSans-20" x="641.21875"/>
    </g>
    <!--  in-out mapping -->
    <g transform="translate(119.824524 31.968) scale(0.12 -0.12)">
     <defs>
      <path id="DejaVuSans-6d" d="M 3328 2828 
Q 3544 3216 3844 3400 
Q 4144 3584 4550 3584 
Q 5097 3584 5394 3201 
Q 5691 2819 5691 2113 
L 5691 0 
L 5113 0 
L 5113 2094 
Q 5113 2597 4934 2840 
Q 4756 3084 4391 3084 
Q 3944 3084 3684 2787 
Q 3425 2491 3425 1978 
L 3425 0 
L 2847 0 
L 2847 2094 
Q 2847 2600 2669 2842 
Q 2491 3084 2119 3084 
Q 1678 3084 1418 2786 
Q 1159 2488 1159 1978 
L 1159 0 
L 581 0 
L 581 3500 
L 1159 3500 
L 1159 2956 
Q 1356 3278 1631 3431 
Q 1906 3584 2284 3584 
Q 2666 3584 2933 3390 
Q 3200 3197 3328 2828 
z
" transform="scale(0.015625)"/>
      <path id="DejaVuSans-67" d="M 2906 1791 
Q 2906 2416 2648 2759 
Q 2391 3103 1925 3103 
Q 1463 3103 1205 2759 
Q 947 2416 947 1791 
Q 947 1169 1205 825 
Q 1463 481 1925 481 
Q 2391 481 2648 825 
Q 2906 1169 2906 1791 
z
M 3481 434 
Q 3481 -459 3084 -895 
Q 2688 -1331 1869 -1331 
Q 1566 -1331 1297 -1286 
Q 1028 -1241 775 -1147 
L 775 -588 
Q 1028 -725 1275 -790 
Q 1522 -856 1778 -856 
Q 2344 -856 2625 -561 
Q 2906 -266 2906 331 
L 2906 616 
Q 2728 306 2450 153 
Q 2172 0 1784 0 
Q 1141 0 747 490 
Q 353 981 353 1791 
Q 353 2603 747 3093 
Q 1141 3584 1784 3584 
Q 2172 3584 2450 3431 
Q 2728 3278 2906 2969 
L 2906 3500 
L 3481 3500 
L 3481 434 
z
" transform="scale(0.015625)"/>
     </defs>
     <use xlink:href="#DejaVuSans-20"/>
     <use xlink:href="#DejaVuSans-69" x="31.787109"/>
     <use xlink:href="#DejaVuSans-6e" x="59.570312"/>
     <use xlink:href="#DejaVuSans-2d" x="122.949219"/>
     <use xlink:href="#DejaVuSans-6f" x="160.908203"/>
     <use xlink:href="#DejaVuSans-75" x="222.089844"/>
     <use xlink:href="#DejaVuSans-74" x="285.46875"/>
     <use xlink:href="#DejaVuSans-20" x="324.677734"/>
     <use xlink:href="#DejaVuSans-6d" x="356.464844"/>
     <use xlink:href="#DejaVuSans-61" x="453.876953"/>
     <use xlink:href="#DejaVuSans-70" x="515.15625"/>
     <use xlink:href="#DejaVuSans-70" x="578.632812"/>
     <use xlink:href="#DejaVuSans-69" x="642.109375"/>
     <use xlink:href="#DejaVuSans-6e" x="669.892578"/>
     <use xlink:href="#DejaVuSans-67" x="733.271484"/>
    </g>
   </g>
   <g id="PathCollection_1">
    <defs>
     <path id="mf41f487676" d="M 0 3.535534 
C 0.937635 3.535534 1.836992 3.163008 2.5 2.5 
C 3.163008 1.836992 3.535534 0.937635 3.535534 0 
C 3.535534 -0.937635 3.163008 -1.836992 2.5 -2.5 
C 1.836992 -3.163008 0.937635 -3.535534 0 -3.535534 
C -0.937635 -3.535534 -1.836992 -3.163008 -2.5 -2.5 
C -3.163008 -1.836992 -3.535534 -0.937635 -3.535534 0 
C -3.535534 0.937635 -3.163008 1.836992 -2.5 2.5 
C -1.836992 3.163008 -0.937635 3.535534 0 3.535534 
z
" style="stroke: #ffffff; stroke-width: 0.6"/>
    </defs>
    <g clip-path="url(#pe123f3a426)">
     <use xlink:href="#mf41f487676" x="83.328025" y="174.5016" style="fill: #463480; stroke: #ffffff; stroke-width: 0.6"/>
    </g>
   </g>
   <g id="PathCollection_2">
    <defs>
     <path id="mdff56593ed" d="M -0 5 
L 3 0 
L 0 -5 
L -3 -0 
z
" style="stroke: #ffffff; stroke-width: 0.6"/>
    </defs>
    <g clip-path="url(#pe123f3a426)">
     <use xlink:href="#mdff56593ed" x="266.805779" y="174.5016" style="fill: #463480; stroke: #ffffff; stroke-width: 0.6"/>
    </g>
   </g>
   <g id="PathCollection_3">
    <defs>
     <path id="m46e70a998d" d="M 0 3.535534 
C 0.937635 3.535534 1.836992 3.163008 2.5 2.5 
C 3.163008 1.836992 3.535534 0.937635 3.535534 0 
C 3.535534 -0.937635 3.163008 -1.836992 2.5 -2.5 
C 1.836992 -3.163008 0.937635 -3.535534 0 -3.535534 
C -0.937635 -3.535534 -1.836992 -3.163008 -2.5 -2.5 
C -3.163008 -1.836992 -3.535534 -0.937635 -3.535534 0 
C -3.535534 0.937635 -3.163008 1.836992 -2.5 2.5 
C -1.836992 3.163008 -0.937635 3.535534 0 3.535534 
z
" style="stroke: #ffffff; stroke-width: 0.6"/>
    </defs>
    <g clip-path="url(#pe123f3a426)">
     <use xlink:href="#m46e70a998d" x="88.164481" y="171.33104" style="fill: #30698e; stroke: #ffffff; stroke-width: 0.6"/>
    </g>
   </g>
   <g id="PathCollection_4">
    <defs>
     <path id="ma64a78b8e4" d="M -0 5 
L 3 0 
L 0 -5 
L -3 -0 
z
" style="stroke: #ffffff; stroke-width: 0.6"/>
    </defs>
    <g clip-path="url(#pe123f3a426)">
     <use xlink:href="#ma64a78b8e4" x="266.805779" y="142.990634" style="fill: #30698e; stroke: #ffffff; stroke-width: 0.6"/>
    </g>
   </g>
   <g id="PathCollection_5">
    <defs>
     <path id="m4a3eab990f" d="M 0 3.535534 
C 0.937635 3.535534 1.836992 3.163008 2.5 2.5 
C 3.163008 1.836992 3.535534 0.937635 3.535534 0 
C 3.535534 -0.937635 3.163008 -1.836992 2.5 -2.5 
C 1.836992 -3.163008 0.937635 -3.535534 0 -3.535534 
C -0.937635 -3.535534 -1.836992 -3.163008 -2.5 -2.5 
C -3.163008 -1.836992 -3.535534 -0.937635 -3.535534 0 
C -3.535534 0.937635 -3.163008 1.836992 -2.5 2.5 
C -1.836992 3.163008 -0.937635 3.535534 0 3.535534 
z
" style="stroke: #ffffff; stroke-width: 0.6"/>
    </defs>
    <g clip-path="url(#pe123f3a426)">
     <use xlink:href="#m4a3eab990f" x="140.63384" y="136.934524" style="fill: #1f968b; stroke: #ffffff; stroke-width: 0.6"/>
    </g>
   </g>
   <g id="PathCollection_6">
    <defs>
     <path id="m55ce25f53d" d="M -0 5 
L 3 0 
L 0 -5 
L -3 -0 
z
" style="stroke: #ffffff; stroke-width: 0.6"/>
    </defs>
    <g clip-path="url(#pe123f3a426)">
     <use xlink:href="#m55ce25f53d" x="266.805779" y="61.633277" style="fill: #1f968b; stroke: #ffffff; stroke-width: 0.6"/>
    </g>
   </g>
   <g id="PathCollection_7">
    <defs>
     <path id="md031bcc83a" d="M 0 3.535534 
C 0.937635 3.535534 1.836992 3.163008 2.5 2.5 
C 3.163008 1.836992 3.535534 0.937635 3.535534 0 
C 3.535534 -0.937635 3.163008 -1.836992 2.5 -2.5 
C 1.836992 -3.163008 0.937635 -3.535534 0 -3.535534 
C -0.937635 -3.535534 -1.836992 -3.163008 -2.5 -2.5 
C -3.163008 -1.836992 -3.535534 -0.937635 -3.535534 0 
C -3.535534 0.937635 -3.163008 1.836992 -2.5 2.5 
C -1.836992 3.163008 -0.937635 3.535534 0 3.535534 
z
" style="stroke: #ffffff; stroke-width: 0.6"/>
    </defs>
    <g clip-path="url(#pe123f3a426)">
     <use xlink:href="#md031bcc83a" x="207.299486" y="93.231569" style="fill: #4ac16d; stroke: #ffffff; stroke-width: 0.6"/>
    </g>
   </g>
   <g id="PathCollection_8">
    <defs>
     <path id="m6b6ef6fca9" d="M -0 5 
L 3 0 
L 0 -5 
L -3 -0 
z
" style="stroke: #ffffff; stroke-width: 0.6"/>
    </defs>
    <g clip-path="url(#pe123f3a426)">
     <use xlink:href="#m6b6ef6fca9" x="266.805779" y="55.76101" style="fill: #4ac16d; stroke: #ffffff; stroke-width: 0.6"/>
    </g>
   </g>
   <g id="PathCollection_9">
    <defs>
     <path id="m617420c041" d="M 0 3.535534 
C 0.937635 3.535534 1.836992 3.163008 2.5 2.5 
C 3.163008 1.836992 3.535534 0.937635 3.535534 0 
C 3.535534 -0.937635 3.163008 -1.836992 2.5 -2.5 
C 1.836992 -3.163008 0.937635 -3.535534 0 -3.535534 
C -0.937635 -3.535534 -1.836992 -3.163008 -2.5 -2.5 
C -3.163008 -1.836992 -3.535534 -0.937635 -3.535534 0 
C -3.535534 0.937635 -3.163008 1.836992 -2.5 2.5 
C -1.836992 3.163008 -0.937635 3.535534 0 3.535534 
z
" style="stroke: #ffffff; stroke-width: 0.6"/>
    </defs>
    <g clip-path="url(#pe123f3a426)">
     <use xlink:href="#m617420c041" x="176.109463" y="113.678324" style="fill: #bddf26; stroke: #ffffff; stroke-width: 0.6"/>
    </g>
   </g>
   <g id="PathCollection_10">
    <defs>
     <path id="m0e14cb4ea7" d="M -0 5 
L 3 0 
L 0 -5 
L -3 -0 
z
" style="stroke: #ffffff; stroke-width: 0.6"/>
    </defs>
    <g clip-path="url(#pe123f3a426)">
     <use xlink:href="#m0e14cb4ea7" x="266.805779" y="57.429524" style="fill: #bddf26; stroke: #ffffff; stroke-width: 0.6"/>
    </g>
   </g>
  </g>
  <g id="axes_2">
   <g id="patch_5">
    <path d="M 335.257173 200.508 
L 583.2 200.508 
L 583.2 37.968 
L 335.257173 37.968 
z
" style="fill: #ffffff"/>
   </g>
   <g id="patch_6">
    <path d="M 346.527301 200.508 
L 388.561835 200.508 
L 388.561835 37.968 
L 346.527301 37.968 
z
" clip-path="url(#p6d06bb8c99)" style="fill: #cccccc; opacity: 0.08; stroke: #cccccc; stroke-linejoin: miter"/>
   </g>
   <g id="patch_7">
    <path d="M 389.171031 200.508 
L 419.630838 200.508 
L 419.630838 37.968 
L 389.171031 37.968 
z
" clip-path="url(#p6d06bb8c99)" style="fill: #2ca02c; opacity: 0.08; stroke: #2ca02c; stroke-linejoin: miter"/>
   </g>
   <g id="patch_8">
    <path d="M 389.171031 200.508 
L 480.550451 200.508 
L 480.550451 37.968 
L 389.171031 37.968 
z
" clip-path="url(#p6d06bb8c99)" style="fill: #2ca02c; opacity: 0.05; stroke: #2ca02c; stroke-linejoin: miter"/>
   </g>
   <g id="patch_9">
    <path d="M 419.630838 200.508 
L 571.929871 200.508 
L 571.929871 37.968 
L 419.630838 37.968 
z
" clip-path="url(#p6d06bb8c99)" style="fill: #d62728; opacity: 0.05; stroke: #d62728; stroke-linejoin: miter"/>
   </g>
   <g id="patch_10">
    <path d="M 480.550451 200.508 
L 571.929871 200.508 
L 571.929871 37.968 
L 480.550451 37.968 
z
" clip-path="url(#p6d06bb8c99)" style="fill: #d62728; opacity: 0.08; stroke: #d62728; stroke-linejoin: miter"/>
   </g>
   <g id="patch_11">
    <path d="M 419.630838 200.508 
L 480.550451 200.508 
L 480.550451 37.968 
L 419.630838 37.968 
z
" clip-path="url(#p6d06bb8c99)" style="fill: #ff7f0e; opacity: 0.06; stroke: #ff7f0e; stroke-linejoin: miter"/>
   </g>
   <g id="patch_12">
    <path d="M 541.470065 200.508 
L 571.929871 200.508 
L 571.929871 37.968 
L 541.470065 37.968 
z
" clip-path="url(#p6d06bb8c99)" style="fill: #2ca02c; opacity: 0.12; stroke: #2ca02c; stroke-linejoin: miter"/>
   </g>
   <g id="matplotlib.axis_3">
    <g id="text_8">
     <!-- trials -->
     <g transform="translate(445.519836 212.866281) scale(0.11 -0.11)">
      <defs>
       <path id="DejaVuSans-6c" d="M 603 4863 
L 1178 4863 
L 1178 0 
L 603 0 
L 603 4863 
z
" transform="scale(0.015625)"/>
       <path id="DejaVuSans-73" d="M 2834 3397 
L 2834 2853 
Q 2591 2978 2328 3040 
Q 2066 3103 1784 3103 
Q 1356 3103 1142 2972 
Q 928 2841 928 2578 
Q 928 2378 1081 2264 
Q 1234 2150 1697 2047 
L 1894 2003 
Q 2506 1872 2764 1633 
Q 3022 1394 3022 966 
Q 3022 478 2636 193 
Q 2250 -91 1575 -91 
Q 1294 -91 989 -36 
Q 684 19 347 128 
L 347 722 
Q 666 556 975 473 
Q 1284 391 1588 391 
Q 1994 391 2212 530 
Q 2431 669 2431 922 
Q 2431 1156 2273 1281 
Q 2116 1406 1581 1522 
L 1381 1569 
Q 847 1681 609 1914 
Q 372 2147 372 2553 
Q 372 3047 722 3315 
Q 1072 3584 1716 3584 
Q 2034 3584 2315 3537 
Q 2597 3491 2834 3397 
z
" transform="scale(0.015625)"/>
      </defs>
      <use xlink:href="#DejaVuSans-74"/>
      <use xlink:href="#DejaVuSans-72" x="39.208984"/>
      <use xlink:href="#DejaVuSans-69" x="80.322266"/>
      <use xlink:href="#DejaVuSans-61" x="108.105469"/>
      <use xlink:href="#DejaVuSans-6c" x="169.384766"/>
      <use xlink:href="#DejaVuSans-73" x="197.167969"/>
     </g>
    </g>
   </g>
   <g id="matplotlib.axis_4">
    <g id="ytick_3">
     <g id="line2d_15">
      <path d="M 335.257173 174.5016 
L 583.2 174.5016 
" clip-path="url(#p6d06bb8c99)" style="fill: none; stroke: #b0b0b0; stroke-opacity: 0.2; stroke-width: 0.8; stroke-linecap: square"/>
     </g>
     <g id="line2d_16">
      <g>
       <use xlink:href="#mcd23a04371" x="335.257173" y="174.5016" style="stroke: #000000; stroke-width: 0.8"/>
      </g>
     </g>
     <g id="text_9">
      <!-- $P^0$ -->
      <g transform="translate(320.257173 178.300819) scale(0.1 -0.1)">
       <use xlink:href="#DejaVuSans-Oblique-50" transform="translate(0 0.765625)"/>
       <use xlink:href="#DejaVuSans-30" transform="translate(67.319505 39.046875) scale(0.7)"/>
      </g>
     </g>
    </g>
    <g id="ytick_4">
     <g id="line2d_17">
      <path d="M 335.257173 53.249906 
L 583.2 53.249906 
" clip-path="url(#p6d06bb8c99)" style="fill: none; stroke: #b0b0b0; stroke-opacity: 0.2; stroke-width: 0.8; stroke-linecap: square"/>
     </g>
     <g id="line2d_18">
      <g>
       <use xlink:href="#mcd23a04371" x="335.257173" y="53.249906" style="stroke: #000000; stroke-width: 0.8"/>
      </g>
     </g>
     <g id="text_10">
      <!-- $P^+$ -->
      <g transform="translate(316.157173 57.049125) scale(0.1 -0.1)">
       <use xlink:href="#DejaVuSans-Oblique-50" transform="translate(0 0.826562)"/>
       <use xlink:href="#DejaVuSans-2b" transform="translate(80.957201 39.107812) scale(0.7)"/>
      </g>
     </g>
    </g>
    <g id="text_11">
     <!-- adaptation -->
     <g transform="translate(309.869517 149.023937) rotate(-90) scale(0.11 -0.11)">
      <use xlink:href="#DejaVuSans-61"/>
      <use xlink:href="#DejaVuSans-64" x="61.279297"/>
      <use xlink:href="#DejaVuSans-61" x="124.755859"/>
      <use xlink:href="#DejaVuSans-70" x="186.035156"/>
      <use xlink:href="#DejaVuSans-74" x="249.511719"/>
      <use xlink:href="#DejaVuSans-61" x="288.720703"/>
      <use xlink:href="#DejaVuSans-74" x="350"/>
      <use xlink:href="#DejaVuSans-69" x="389.208984"/>
      <use xlink:href="#DejaVuSans-6f" x="416.992188"/>
      <use xlink:href="#DejaVuSans-6e" x="478.173828"/>
     </g>
    </g>
   </g>
   <g id="line2d_19">
    <path d="M 358.711224 174.5016 
L 389.171031 174.5016 
L 389.780227 142.746297 
L 390.389423 98.801885 
L 390.998619 84.784496 
L 391.607815 79.056458 
L 392.217011 76.251059 
L 392.826208 74.66415 
L 393.435404 73.638184 
L 394.653796 72.277706 
L 396.481384 70.801768 
L 398.918169 69.151103 
L 401.96415 67.365455 
L 405.01013 65.823452 
L 408.665307 64.237232 
L 412.320484 62.888643 
L 416.584857 61.560469 
L 421.458426 60.304328 
L 426.331995 59.272278 
L 431.81476 58.324569 
L 438.515918 57.406947 
L 445.826271 56.637282 
L 454.355017 55.966104 
L 464.711352 55.386567 
L 477.50447 54.912205 
L 480.550451 54.827647 
L 482.987236 60.691854 
L 485.42402 65.905003 
L 487.860805 70.544614 
L 490.297589 74.679387 
L 492.734374 78.369096 
L 495.171158 81.668845 
L 497.607943 84.627665 
L 500.044727 87.288958 
L 503.090708 90.253916 
L 506.136689 92.87565 
L 509.18267 95.207887 
L 512.837846 97.68895 
L 516.493023 99.884592 
L 520.757396 102.156004 
L 525.021769 104.175151 
L 529.895338 106.233393 
L 535.378103 108.300919 
L 541.470065 110.364492 
L 548.780418 112.592947 
L 556.699968 114.765357 
L 565.83791 117.026592 
L 571.320675 118.282194 
L 571.320675 118.282194 
" clip-path="url(#p6d06bb8c99)" style="fill: none; stroke: #1f77b4; stroke-opacity: 0.75; stroke-width: 2.5; stroke-linecap: square"/>
   </g>
   <g id="line2d_20">
    <path d="M 358.711224 174.5016 
L 389.171031 174.5016 
L 389.780227 171.33104 
L 390.389423 165.383421 
L 390.998619 161.524658 
L 391.607815 159.108467 
L 392.217011 157.627296 
L 392.826208 156.634347 
L 394.0446 155.411254 
L 394.653796 154.99678 
L 395.262992 154.99678 
L 395.872188 154.107831 
L 399.527365 151.756177 
L 400.136561 151.745975 
L 400.745757 150.941296 
L 404.400934 148.503839 
L 405.01013 148.495178 
L 405.619326 147.642438 
L 408.665307 145.489251 
L 409.274503 145.244381 
L 409.883699 145.244381 
L 410.492896 144.128802 
L 412.92968 142.290987 
L 413.538876 141.993577 
L 414.757268 141.993577 
L 415.366465 140.379196 
L 417.194053 138.934031 
L 417.803249 138.742772 
L 418.412445 138.742772 
L 419.021641 137.436482 
L 421.458426 135.491975 
L 422.676818 135.491975 
L 423.286014 133.857024 
L 425.113603 132.28884 
L 426.941191 132.241178 
L 427.550387 130.169614 
L 428.76878 129.113905 
L 429.377976 128.990374 
L 430.596368 128.990374 
L 431.205564 126.994439 
L 432.423956 125.941822 
L 433.033153 125.739569 
L 434.251545 125.739569 
L 434.860741 123.828828 
L 436.079133 122.7818 
L 436.688329 122.488772 
L 438.515918 122.488772 
L 439.125114 120.191168 
L 440.343506 119.237975 
L 442.780291 119.237975 
L 443.389487 116.663996 
L 443.998683 116.171683 
L 444.607879 115.987171 
L 447.044664 115.987171 
L 447.65386 113.259832 
L 448.263056 112.786407 
L 450.090644 112.736366 
L 451.309037 112.736366 
L 451.918233 109.972553 
L 452.527429 109.51692 
L 454.964213 109.485569 
L 455.57341 109.485569 
L 456.182606 106.841118 
L 456.791802 106.409655 
L 457.400998 106.234772 
L 460.446979 106.234772 
L 461.056175 103.495478 
L 461.665371 103.096513 
L 462.883763 102.983975 
L 465.929744 102.983975 
L 466.53894 100.015963 
L 467.148136 99.733163 
L 472.021705 99.733163 
L 472.630901 96.554887 
L 473.849294 96.482366 
L 478.722863 96.482366 
L 479.332059 93.244133 
L 481.768843 93.265625 
L 482.37804 96.482366 
L 489.079197 96.519212 
L 489.688393 99.733163 
L 496.998747 99.758639 
L 497.607943 99.996021 
L 498.217139 102.983975 
L 505.527493 102.983975 
L 506.745885 103.381468 
L 507.355081 106.234772 
L 515.274631 106.24088 
L 517.102219 106.821649 
L 517.711415 109.485569 
L 526.240161 109.585349 
L 528.676946 110.278919 
L 529.286142 112.736366 
L 537.814888 112.755537 
L 541.470065 113.678324 
L 542.079261 115.987171 
L 551.217203 116.012305 
L 555.481576 116.970451 
L 556.090772 119.237975 
L 566.447106 119.29972 
L 571.320675 120.274501 
L 571.320675 120.274501 
" clip-path="url(#p6d06bb8c99)" style="fill: none; stroke: #ff7f0e; stroke-opacity: 0.75; stroke-width: 2.5; stroke-linecap: square"/>
   </g>
   <g id="line2d_21">
    <path d="M 358.711224 174.5016 
L 389.171031 174.5016 
L 389.780227 142.746297 
L 390.389423 98.801885 
L 390.998619 84.784496 
L 391.607815 79.056458 
L 392.217011 76.251059 
L 392.826208 74.66415 
L 393.435404 73.638184 
L 394.653796 72.277706 
L 396.481384 70.801768 
L 398.918169 69.151103 
L 401.96415 67.365455 
L 405.01013 65.823452 
L 408.665307 64.237232 
L 412.320484 62.888643 
L 416.584857 61.560469 
L 419.630838 60.746348 
L 420.84923 73.869335 
L 422.067622 84.836673 
L 423.286014 93.996374 
L 424.504407 101.641129 
L 425.722799 108.016049 
L 426.941191 113.322006 
L 428.159583 117.729772 
L 429.377976 121.383789 
L 430.596368 124.412445 
L 431.81476 126.923289 
L 433.033153 129.00377 
L 434.251545 130.727031 
L 435.469937 132.15576 
L 436.688329 133.342321 
L 438.515918 134.759412 
L 440.343506 135.838842 
L 442.171095 136.665612 
L 444.607879 137.486499 
L 447.65386 138.208239 
L 451.309037 138.808322 
L 456.791802 139.434404 
L 465.929744 140.204201 
L 484.814824 141.529267 
L 512.837846 143.253083 
L 544.516045 144.968045 
L 571.320675 146.259574 
L 571.320675 146.259574 
" clip-path="url(#p6d06bb8c99)" style="fill: none; stroke-dasharray: 5.55,2.4; stroke-dashoffset: 0; stroke: #1f77b4; stroke-opacity: 0.6; stroke-width: 1.5"/>
   </g>
   <g id="line2d_22">
    <path d="M 358.711224 174.5016 
L 389.171031 174.5016 
L 389.780227 171.33104 
L 390.389423 165.383421 
L 390.998619 161.524658 
L 391.607815 159.108467 
L 392.217011 157.627296 
L 392.826208 156.634347 
L 394.0446 155.411254 
L 394.653796 154.99678 
L 395.262992 154.99678 
L 395.872188 154.107831 
L 399.527365 151.756177 
L 400.136561 151.745975 
L 400.745757 150.941296 
L 404.400934 148.503839 
L 405.01013 148.495178 
L 405.619326 147.642438 
L 408.665307 145.489251 
L 409.274503 145.244381 
L 409.883699 145.244381 
L 410.492896 144.128802 
L 412.92968 142.290987 
L 413.538876 141.993577 
L 414.757268 141.993577 
L 415.366465 140.379196 
L 417.194053 138.934031 
L 417.803249 138.742772 
L 418.412445 138.742772 
L 419.021641 137.436482 
L 419.630838 136.934524 
L 425.113603 137.410405 
L 425.722799 138.742772 
L 442.171095 138.817158 
L 469.584921 140.802885 
L 470.194117 140.844641 
L 470.803313 141.993577 
L 489.079197 142.087846 
L 522.584984 144.013441 
L 526.849357 144.24323 
L 527.458554 145.244381 
L 548.171222 145.338841 
L 571.320675 146.385675 
L 571.320675 146.385675 
" clip-path="url(#p6d06bb8c99)" style="fill: none; stroke-dasharray: 5.55,2.4; stroke-dashoffset: 0; stroke: #ff7f0e; stroke-opacity: 0.6; stroke-width: 1.5"/>
   </g>
   <g id="line2d_23">
    <path d="M 358.711224 174.5016 
L 389.171031 174.5016 
L 389.780227 142.746297 
L 390.389423 98.801885 
L 390.998619 84.784496 
L 391.607815 79.056458 
L 392.217011 76.251059 
L 392.826208 74.66415 
L 393.435404 73.638184 
L 394.653796 72.277706 
L 396.481384 70.801768 
L 398.918169 69.151103 
L 401.96415 67.365455 
L 405.01013 65.823452 
L 408.665307 64.237232 
L 412.320484 62.888643 
L 416.584857 61.560469 
L 421.458426 60.304328 
L 426.331995 59.272278 
L 431.81476 58.324569 
L 438.515918 57.406947 
L 445.826271 56.637282 
L 454.355017 55.966104 
L 464.711352 55.386567 
L 477.50447 54.912205 
L 480.550451 54.827647 
L 482.987236 60.691854 
L 485.42402 65.905003 
L 487.860805 70.544614 
L 490.297589 74.679387 
L 492.734374 78.369096 
L 495.171158 81.668845 
L 497.607943 84.627665 
L 500.044727 87.288958 
L 503.090708 90.253916 
L 506.136689 92.87565 
L 509.18267 95.207887 
L 512.837846 97.68895 
L 516.493023 99.884592 
L 520.757396 102.156004 
L 525.021769 104.175151 
L 529.895338 106.233393 
L 535.378103 108.300919 
L 541.470065 110.364492 
L 542.079261 55.649325 
L 553.044791 55.144805 
L 567.056302 54.730238 
L 571.320675 54.639743 
L 571.320675 54.639743 
" clip-path="url(#p6d06bb8c99)" style="fill: none; stroke-dasharray: 1.5,2.475; stroke-dashoffset: 0; stroke: #1f77b4; stroke-opacity: 0.6; stroke-width: 1.5"/>
   </g>
   <g id="line2d_24">
    <path d="M 358.711224 174.5016 
L 389.171031 174.5016 
L 389.780227 171.33104 
L 390.389423 165.383421 
L 390.998619 161.524658 
L 391.607815 159.108467 
L 392.217011 157.627296 
L 392.826208 156.634347 
L 394.0446 155.411254 
L 394.653796 154.99678 
L 395.262992 154.99678 
L 395.872188 154.107831 
L 399.527365 151.756177 
L 400.136561 151.745975 
L 400.745757 150.941296 
L 404.400934 148.503839 
L 405.01013 148.495178 
L 405.619326 147.642438 
L 408.665307 145.489251 
L 409.274503 145.244381 
L 409.883699 145.244381 
L 410.492896 144.128802 
L 412.92968 142.290987 
L 413.538876 141.993577 
L 414.757268 141.993577 
L 415.366465 140.379196 
L 417.194053 138.934031 
L 417.803249 138.742772 
L 418.412445 138.742772 
L 419.021641 137.436482 
L 421.458426 135.491975 
L 422.676818 135.491975 
L 423.286014 133.857024 
L 425.113603 132.28884 
L 426.941191 132.241178 
L 427.550387 130.169614 
L 428.76878 129.113905 
L 429.377976 128.990374 
L 430.596368 128.990374 
L 431.205564 126.994439 
L 432.423956 125.941822 
L 433.033153 125.739569 
L 434.251545 125.739569 
L 434.860741 123.828828 
L 436.079133 122.7818 
L 436.688329 122.488772 
L 438.515918 122.488772 
L 439.125114 120.191168 
L 440.343506 119.237975 
L 442.780291 119.237975 
L 443.389487 116.663996 
L 443.998683 116.171683 
L 444.607879 115.987171 
L 447.044664 115.987171 
L 447.65386 113.259832 
L 448.263056 112.786407 
L 450.090644 112.736366 
L 451.309037 112.736366 
L 451.918233 109.972553 
L 452.527429 109.51692 
L 454.964213 109.485569 
L 455.57341 109.485569 
L 456.182606 106.841118 
L 456.791802 106.409655 
L 457.400998 106.234772 
L 460.446979 106.234772 
L 461.056175 103.495478 
L 461.665371 103.096513 
L 462.883763 102.983975 
L 465.929744 102.983975 
L 466.53894 100.015963 
L 467.148136 99.733163 
L 472.021705 99.733163 
L 472.630901 96.554887 
L 473.849294 96.482366 
L 478.722863 96.482366 
L 479.332059 93.244133 
L 481.768843 93.265625 
L 482.37804 96.482366 
L 489.079197 96.519212 
L 489.688393 99.733163 
L 496.998747 99.758639 
L 497.607943 99.996021 
L 498.217139 102.983975 
L 505.527493 102.983975 
L 506.745885 103.381468 
L 507.355081 106.234772 
L 515.274631 106.24088 
L 517.102219 106.821649 
L 517.711415 109.485569 
L 526.240161 109.585349 
L 528.676946 110.278919 
L 529.286142 112.736366 
L 537.814888 112.755537 
L 541.470065 113.678324 
L 542.079261 106.234772 
L 543.297653 106.234772 
L 543.906849 103.31865 
L 544.516045 102.983975 
L 548.780418 102.983975 
L 549.389614 99.855148 
L 549.998811 99.733163 
L 554.87238 99.733163 
L 555.481576 96.482366 
L 561.573537 96.482366 
L 562.182733 93.231569 
L 569.493087 93.231569 
L 570.102283 89.980757 
L 571.320675 89.980757 
L 571.320675 89.980757 
" clip-path="url(#p6d06bb8c99)" style="fill: none; stroke-dasharray: 1.5,2.475; stroke-dashoffset: 0; stroke: #ff7f0e; stroke-opacity: 0.6; stroke-width: 1.5"/>
   </g>
   <g id="patch_13">
    <path d="M 335.257173 200.508 
L 335.257173 37.968 
" style="fill: none; stroke: #000000; stroke-width: 0.8; stroke-linejoin: miter; stroke-linecap: square"/>
   </g>
   <g id="patch_14">
    <path d="M 335.257173 200.508 
L 583.2 200.508 
" style="fill: none; stroke: #000000; stroke-width: 0.8; stroke-linejoin: miter; stroke-linecap: square"/>
   </g>
   <g id="text_12">
    <!-- adaptation trajectories -->
    <g transform="translate(390.700149 31.968) scale(0.12 -0.12)">
     <defs>
      <path id="DejaVuSans-6a" d="M 603 3500 
L 1178 3500 
L 1178 -63 
Q 1178 -731 923 -1031 
Q 669 -1331 103 -1331 
L -116 -1331 
L -116 -844 
L 38 -844 
Q 366 -844 484 -692 
Q 603 -541 603 -63 
L 603 3500 
z
M 603 4863 
L 1178 4863 
L 1178 4134 
L 603 4134 
L 603 4863 
z
" transform="scale(0.015625)"/>
      <path id="DejaVuSans-63" d="M 3122 3366 
L 3122 2828 
Q 2878 2963 2633 3030 
Q 2388 3097 2138 3097 
Q 1578 3097 1268 2742 
Q 959 2388 959 1747 
Q 959 1106 1268 751 
Q 1578 397 2138 397 
Q 2388 397 2633 464 
Q 2878 531 3122 666 
L 3122 134 
Q 2881 22 2623 -34 
Q 2366 -91 2075 -91 
Q 1284 -91 818 406 
Q 353 903 353 1747 
Q 353 2603 823 3093 
Q 1294 3584 2113 3584 
Q 2378 3584 2631 3529 
Q 2884 3475 3122 3366 
z
" transform="scale(0.015625)"/>
     </defs>
     <use xlink:href="#DejaVuSans-61"/>
     <use xlink:href="#DejaVuSans-64" x="61.279297"/>
     <use xlink:href="#DejaVuSans-61" x="124.755859"/>
     <use xlink:href="#DejaVuSans-70" x="186.035156"/>
     <use xlink:href="#DejaVuSans-74" x="249.511719"/>
     <use xlink:href="#DejaVuSans-61" x="288.720703"/>
     <use xlink:href="#DejaVuSans-74" x="350"/>
     <use xlink:href="#DejaVuSans-69" x="389.208984"/>
     <use xlink:href="#DejaVuSans-6f" x="416.992188"/>
     <use xlink:href="#DejaVuSans-6e" x="478.173828"/>
     <use xlink:href="#DejaVuSans-20" x="541.552734"/>
     <use xlink:href="#DejaVuSans-74" x="573.339844"/>
     <use xlink:href="#DejaVuSans-72" x="612.548828"/>
     <use xlink:href="#DejaVuSans-61" x="653.662109"/>
     <use xlink:href="#DejaVuSans-6a" x="714.941406"/>
     <use xlink:href="#DejaVuSans-65" x="742.724609"/>
     <use xlink:href="#DejaVuSans-63" x="804.248047"/>
     <use xlink:href="#DejaVuSans-74" x="859.228516"/>
     <use xlink:href="#DejaVuSans-6f" x="898.4375"/>
     <use xlink:href="#DejaVuSans-72" x="959.619141"/>
     <use xlink:href="#DejaVuSans-69" x="1000.732422"/>
     <use xlink:href="#DejaVuSans-65" x="1028.515625"/>
     <use xlink:href="#DejaVuSans-73" x="1090.039062"/>
    </g>
   </g>
   <g id="PathCollection_11">
    <g clip-path="url(#p6d06bb8c99)">
     <use xlink:href="#mdff56593ed" x="388.561835" y="174.5016" style="fill: #463480; stroke: #ffffff; stroke-width: 0.6"/>
    </g>
   </g>
   <g id="PathCollection_12">
    <g clip-path="url(#p6d06bb8c99)">
     <use xlink:href="#ma64a78b8e4" x="389.171031" y="142.990634" style="fill: #30698e; stroke: #ffffff; stroke-width: 0.6"/>
    </g>
   </g>
   <g id="PathCollection_13">
    <g clip-path="url(#p6d06bb8c99)">
     <use xlink:href="#m55ce25f53d" x="419.021641" y="61.633277" style="fill: #1f968b; stroke: #ffffff; stroke-width: 0.6"/>
    </g>
   </g>
   <g id="PathCollection_14">
    <g clip-path="url(#p6d06bb8c99)">
     <use xlink:href="#m6b6ef6fca9" x="479.941255" y="55.76101" style="fill: #4ac16d; stroke: #ffffff; stroke-width: 0.6"/>
    </g>
   </g>
   <g id="PathCollection_15">
    <g clip-path="url(#p6d06bb8c99)">
     <use xlink:href="#m0e14cb4ea7" x="540.860869" y="57.429524" style="fill: #bddf26; stroke: #ffffff; stroke-width: 0.6"/>
    </g>
   </g>
   <g id="PathCollection_16">
    <g clip-path="url(#p6d06bb8c99)">
     <use xlink:href="#mf41f487676" x="388.561835" y="174.5016" style="fill: #463480; stroke: #ffffff; stroke-width: 0.6"/>
    </g>
   </g>
   <g id="PathCollection_17">
    <g clip-path="url(#p6d06bb8c99)">
     <use xlink:href="#m46e70a998d" x="389.171031" y="171.33104" style="fill: #30698e; stroke: #ffffff; stroke-width: 0.6"/>
    </g>
   </g>
   <g id="PathCollection_18">
    <g clip-path="url(#p6d06bb8c99)">
     <use xlink:href="#m4a3eab990f" x="419.021641" y="136.934524" style="fill: #1f968b; stroke: #ffffff; stroke-width: 0.6"/>
    </g>
   </g>
   <g id="PathCollection_19">
    <g clip-path="url(#p6d06bb8c99)">
     <use xlink:href="#md031bcc83a" x="479.941255" y="93.231569" style="fill: #4ac16d; stroke: #ffffff; stroke-width: 0.6"/>
    </g>
   </g>
   <g id="PathCollection_20">
    <g clip-path="url(#p6d06bb8c99)">
     <use xlink:href="#m617420c041" x="540.860869" y="113.678324" style="fill: #bddf26; stroke: #ffffff; stroke-width: 0.6"/>
    </g>
   </g>
  </g>
 </g>
 <defs>
  <clipPath id="pe123f3a426">
   <rect x="43.657173" y="37.968" width="247.942827" height="162.54"/>
  </clipPath>
  <clipPath id="p6d06bb8c99">
   <rect x="335.257173" y="37.968" width="247.942827" height="162.54"/>
  </clipPath>
 </defs>
</svg>
