<?xml version="1.0" encoding="utf-8" standalone="no"?>
<!DOCTYPE svg PUBLIC "-//W3C//DTD SVG 1.1//EN"
  "http://www.w3.org/Graphics/SVG/1.1/DTD/svg11.dtd">
<svg xmlns:xlink="http://www.w3.org/1999/xlink" width="270pt" height="201.6pt" viewBox="0 0 270 201.6" xmlns="http://www.w3.org/2000/svg" version="1.1">
 <metadata>
  <rdf:RDF xmlns:dc="http://purl.org/dc/elements/1.1/" xmlns:cc="http://creativecommons.org/ns#" xmlns:rdf="http://www.w3.org/1999/02/22-rdf-syntax-ns#">
   <cc:Work>
    <dc:type rdf:resource="http://purl.org/dc/dcmitype/StillImage"/>
    <dc:date>2026-04-30T12:28:06.572589</dc:date>
    <dc:format>image/svg+xml</dc:format>
    <dc:creator>
     <cc:Agent>
      <dc:title>Matplotlib v3.9.2, https://matplotlib.org/</dc:title>
     </cc:Agent>
    </dc:creator>
   </cc:Work>
  </rdf:RDF>
 </metadata>
 <defs>
  <style type="text/css">*{stroke-linejoin: round; stroke-linecap: butt}</style>
 </defs>
 <g id="figure_1">
  <g id="patch_1">
   <path d="M 0 201.6 
L 270 201.6 
L 270 0 
L 0 0 
z
" style="fill: #ffffff"/>
  </g>
  <g id="axes_1">
   <g id="patch_2">
    <path d="M 28.857173 190.8 
L 259.2 190.8 
L 259.2 10.8 
L 28.857173 10.8 
z
" style="fill: #ffffff"/>
   </g>
   <g id="patch_3">
    <path d="M 39.327301 190.8 
L 78.378051 190.8 
L 78.378051 10.8 
L 39.327301 10.8 
z
" clip-path="url(#pe2b6ffb900)" style="fill: #cccccc; opacity: 0.08; stroke: #cccccc; stroke-linejoin: miter"/>
   </g>
   <g id="patch_4">
    <path d="M 78.944004 190.8 
L 107.241648 190.8 
L 107.241648 10.8 
L 78.944004 10.8 
z
" clip-path="url(#pe2b6ffb900)" style="fill: #2ca02c; opacity: 0.08; stroke: #2ca02c; stroke-linejoin: miter"/>
   </g>
   <g id="patch_5">
    <path d="M 78.944004 190.8 
L 163.836938 190.8 
L 163.836938 10.8 
L 78.944004 10.8 
z
" clip-path="url(#pe2b6ffb900)" style="fill: #2ca02c; opacity: 0.05; stroke: #2ca02c; stroke-linejoin: miter"/>
   </g>
   <g id="patch_6">
    <path d="M 107.241648 190.8 
L 248.729871 190.8 
L 248.729871 10.8 
L 107.241648 10.8 
z
" clip-path="url(#pe2b6ffb900)" style="fill: #d62728; opacity: 0.05; stroke: #d62728; stroke-linejoin: miter"/>
   </g>
   <g id="patch_7">
    <path d="M 163.836938 190.8 
L 248.729871 190.8 
L 248.729871 10.8 
L 163.836938 10.8 
z
" clip-path="url(#pe2b6ffb900)" style="fill: #d62728; opacity: 0.08; stroke: #d62728; stroke-linejoin: miter"/>
   </g>
   <g id="patch_8">
    <path d="M 107.241648 190.8 
L 163.836938 190.8 
L 163.836938 10.8 
L 107.241648 10.8 
z
" clip-path="url(#pe2b6ffb900)" style="fill: #ff7f0e; opacity: 0.06; stroke: #ff7f0e; stroke-linejoin: miter"/>
   </g>
   <g id="patch_9">
    <path d="M 220.432227 190.8 
L 248.729871 190.8 
L 248.729871 10.8 
L 220.432227 10.8 
z
" clip-path="url(#pe2b6ffb900)" style="fill: #2ca02c; opacity: 0.12; stroke: #2ca02c; stroke-linejoin: miter"/>
   </g>
   <g id="matplotlib.axis_1"/>
   <g id="matplotlib.axis_2">
    <g id="ytick_1">
     <g id="line2d_1">
      <path d="M 28.857173 162 
L 259.2 162 
" clip-path="url(#pe2b6ffb900)" style="fill: none; stroke: #b0b0b0; stroke-opacity: 0.2; stroke-width: 0.8; stroke-linecap: square"/>
     </g>
     <g id="line2d_2">
      <defs>
       <path id="m5f31c4d35d" d="M 0 0 
L 3.5 0 
" style="stroke: #000000; stroke-width: 0.8"/>
      </defs>
      <g>
       <use xlink:href="#m5f31c4d35d" x="28.857173" y="162" style="stroke: #000000; stroke-width: 0.8"/>
      </g>
     </g>
     <g id="text_1">
      <!-- $P^0$ -->
      <g transform="translate(13.857173 165.799219) scale(0.1 -0.1)">
       <defs>
        <path id="DejaVuSans-Oblique-50" d="M 1081 4666 
L 2541 4666 
Q 3178 4666 3512 4369 
Q 3847 4072 3847 3500 
Q 3847 2731 3353 2303 
Q 2859 1875 1966 1875 
L 1172 1875 
L 806 0 
L 172 0 
L 1081 4666 
z
M 1613 4147 
L 1275 2394 
L 2069 2394 
Q 2606 2394 2893 2669 
Q 3181 2944 3181 3456 
Q 3181 3784 2986 3965 
Q 2791 4147 2438 4147 
L 1613 4147 
z
" transform="scale(0.015625)"/>
        <path id="DejaVuSans-30" d="M 2034 4250 
Q 1547 4250 1301 3770 
Q 1056 3291 1056 2328 
Q 1056 1369 1301 889 
Q 1547 409 2034 409 
Q 2525 409 2770 889 
Q 3016 1369 3016 2328 
Q 3016 3291 2770 3770 
Q 2525 4250 2034 4250 
z
M 2034 4750 
Q 2819 4750 3233 4129 
Q 3647 3509 3647 2328 
Q 3647 1150 3233 529 
Q 2819 -91 2034 -91 
Q 1250 -91 836 529 
Q 422 1150 422 2328 
Q 422 3509 836 4129 
Q 1250 4750 2034 4750 
z
" transform="scale(0.015625)"/>
       </defs>
       <use xlink:href="#DejaVuSans-Oblique-50" transform="translate(0 0.765625)"/>
       <use xlink:href="#DejaVuSans-30" transform="translate(67.319505 39.046875) scale(0.7)"/>
      </g>
     </g>
    </g>
    <g id="ytick_2">
     <g id="line2d_3">
      <path d="M 28.857173 28.852261 
L 259.2 28.852261 
" clip-path="url(#pe2b6ffb900)" style="fill: none; stroke: #b0b0b0; stroke-opacity: 0.2; stroke-width: 0.8; stroke-linecap: square"/>
     </g>
     <g id="line2d_4">
      <g>
       <use xlink:href="#m5f31c4d35d" x="28.857173" y="28.852261" style="stroke: #000000; stroke-width: 0.8"/>
      </g>
     </g>
     <g id="text_2">
      <!-- $P^+$ -->
      <g transform="translate(9.757173 32.651479) scale(0.1 -0.1)">
       <defs>
        <path id="DejaVuSans-2b" d="M 2944 4013 
L 2944 2272 
L 4684 2272 
L 4684 1741 
L 2944 1741 
L 2944 0 
L 2419 0 
L 2419 1741 
L 678 1741 
L 678 2272 
L 2419 2272 
L 2419 4013 
L 2944 4013 
z
" transform="scale(0.015625)"/>
       </defs>
       <use xlink:href="#DejaVuSans-Oblique-50" transform="translate(0 0.826562)"/>
       <use xlink:href="#DejaVuSans-2b" transform="translate(80.957201 39.107812) scale(0.7)"/>
      </g>
     </g>
    </g>
   </g>
   <g id="line2d_5">
    <path d="M 50.646359 162 
L 78.944004 162 
L 79.509957 146.434975 
L 80.07591 114.89332 
L 80.641862 95.151206 
L 81.207815 82.886129 
L 81.773768 75.06207 
L 82.339721 69.877244 
L 82.905674 66.296843 
L 83.471627 63.718566 
L 84.03758 61.78232 
L 85.169486 59.032519 
L 86.301391 57.081124 
L 87.99925 54.830652 
L 89.697109 52.968985 
L 91.96092 50.812755 
L 94.790685 48.474821 
L 97.620449 46.447123 
L 100.450214 44.675097 
L 103.845931 42.830269 
L 107.241648 41.242212 
L 111.203319 39.658207 
L 115.164989 38.314004 
L 119.692612 37.018982 
L 124.786188 35.812795 
L 130.445717 34.722427 
L 136.671199 33.763166 
L 143.462633 32.940265 
L 151.385974 32.205202 
L 161.007173 31.552837 
L 163.836938 31.399793 
L 165.534796 38.513766 
L 167.232655 44.898213 
L 168.930514 50.62833 
L 170.628372 55.772035 
L 172.892184 61.821751 
L 175.155995 67.065868 
L 177.419807 71.6188 
L 179.683619 75.57962 
L 181.94743 79.033756 
L 184.211242 82.055426 
L 186.475053 84.708813 
L 188.738865 87.048643 
L 191.002676 89.118416 
L 193.832441 91.38647 
L 196.662205 93.363087 
L 200.057923 95.427255 
L 203.45364 97.222404 
L 207.41531 99.051644 
L 211.942933 100.875109 
L 217.03651 102.678472 
L 223.261991 104.631532 
L 230.619379 106.691576 
L 239.108672 108.833124 
L 248.163919 110.907008 
L 248.163919 110.907008 
" clip-path="url(#pe2b6ffb900)" style="fill: none; stroke: #1f77b4; stroke-opacity: 0.75; stroke-width: 2.5; stroke-linecap: square"/>
   </g>
   <g id="line2d_6">
    <path d="M 50.646359 162 
L 78.944004 162 
L 79.509957 160.726418 
L 80.641862 155.903015 
L 81.773768 152.410637 
L 82.905674 150.155712 
L 84.03758 148.673231 
L 85.169486 147.651781 
L 85.735438 147.599979 
L 86.301391 146.784237 
L 88.565203 145.339938 
L 90.829014 144.033684 
L 91.394967 143.999983 
L 91.96092 143.338496 
L 96.488543 140.573225 
L 97.054496 140.399978 
L 97.620449 140.399978 
L 98.186402 139.475188 
L 102.148072 136.878527 
L 103.279978 136.799973 
L 103.845931 135.713648 
L 107.241648 133.373974 
L 107.807601 133.199976 
L 108.939507 133.199976 
L 109.50546 131.703093 
L 112.335224 129.599979 
L 113.46713 129.599979 
L 114.033083 128.252736 
L 116.862848 126.018806 
L 118.560706 125.999974 
L 119.126659 124.138289 
L 120.824518 122.724838 
L 121.390471 122.399969 
L 123.088329 122.399969 
L 123.654282 120.293302 
L 125.352141 118.827683 
L 127.05 118.799973 
L 127.615952 116.820515 
L 129.313811 115.318521 
L 129.879764 115.199976 
L 131.577623 115.199976 
L 132.143576 112.810553 
L 133.275481 111.813809 
L 133.841434 111.599971 
L 135.539293 111.599971 
L 136.105246 109.312768 
L 137.237152 108.321475 
L 137.803105 107.999966 
L 140.066916 107.999966 
L 140.632869 105.373135 
L 141.764775 104.40626 
L 144.594539 104.399969 
L 145.160492 101.555115 
L 145.726445 101.089063 
L 146.292398 100.799973 
L 149.122162 100.799973 
L 149.688115 97.890261 
L 150.254068 97.44531 
L 150.820021 97.199967 
L 154.215738 97.199967 
L 154.781691 93.94625 
L 155.347644 93.599962 
L 159.309314 93.599962 
L 159.875267 90.232112 
L 160.44122 89.999966 
L 169.496467 90.040611 
L 170.062419 90.280718 
L 170.628372 93.599962 
L 178.551713 93.702526 
L 179.683619 94.129821 
L 180.249571 97.199967 
L 188.172912 97.199967 
L 190.436724 97.930678 
L 191.002676 100.799973 
L 199.49197 100.799973 
L 202.887687 101.787442 
L 203.45364 104.399969 
L 212.508886 104.460162 
L 216.470557 105.492053 
L 217.03651 107.999966 
L 226.657709 107.999966 
L 232.317238 109.275341 
L 232.88319 111.599971 
L 243.636295 111.678819 
L 248.163919 112.570102 
L 248.163919 112.570102 
" clip-path="url(#pe2b6ffb900)" style="fill: none; stroke: #ff7f0e; stroke-opacity: 0.75; stroke-width: 2.5; stroke-linecap: square"/>
   </g>
   <g id="line2d_7">
    <path d="M 50.646359 162 
L 78.944004 162 
L 79.509957 146.434975 
L 80.07591 114.89332 
L 80.641862 95.151206 
L 81.207815 82.886129 
L 81.773768 75.06207 
L 82.339721 69.877244 
L 82.905674 66.296843 
L 83.471627 63.718566 
L 84.03758 61.78232 
L 85.169486 59.032519 
L 86.301391 57.081124 
L 87.99925 54.830652 
L 89.697109 52.968985 
L 91.96092 50.812755 
L 94.790685 48.474821 
L 97.620449 46.447123 
L 100.450214 44.675097 
L 103.845931 42.830269 
L 107.241648 41.242212 
L 108.373554 61.936815 
L 109.50546 78.161648 
L 110.637366 90.871413 
L 111.769272 100.808496 
L 112.901177 108.552114 
L 114.033083 114.574704 
L 115.164989 119.248313 
L 116.296895 122.866038 
L 117.4288 125.649751 
L 118.560706 127.781472 
L 119.692612 129.404328 
L 120.824518 130.635707 
L 121.956424 131.57044 
L 123.088329 132.279837 
L 124.786188 133.035692 
L 126.484047 133.543239 
L 128.747858 133.985295 
L 132.143576 134.375075 
L 137.803105 134.754932 
L 154.781691 135.574413 
L 193.832441 137.244777 
L 233.449143 138.71631 
L 248.163919 139.215892 
L 248.163919 139.215892 
" clip-path="url(#pe2b6ffb900)" style="fill: none; stroke-dasharray: 5.55,2.4; stroke-dashoffset: 0; stroke: #1f77b4; stroke-opacity: 0.6; stroke-width: 1.5"/>
   </g>
   <g id="line2d_8">
    <path d="M 50.646359 162 
L 78.944004 162 
L 79.509957 160.726418 
L 80.641862 155.903015 
L 81.773768 152.410637 
L 82.905674 150.155712 
L 84.03758 148.673231 
L 85.169486 147.651781 
L 85.735438 147.599979 
L 86.301391 146.784237 
L 88.565203 145.339938 
L 90.829014 144.033684 
L 91.394967 143.999983 
L 91.96092 143.338496 
L 96.488543 140.573225 
L 97.054496 140.399978 
L 97.620449 140.399978 
L 98.186402 139.475188 
L 102.148072 136.878527 
L 103.279978 136.799973 
L 103.845931 135.713648 
L 107.241648 133.373974 
L 143.462633 135.178772 
L 158.743362 135.878469 
L 159.309314 136.799973 
L 182.513383 136.897438 
L 228.355567 138.597452 
L 248.163919 139.268624 
L 248.163919 139.268624 
" clip-path="url(#pe2b6ffb900)" style="fill: none; stroke-dasharray: 5.55,2.4; stroke-dashoffset: 0; stroke: #ff7f0e; stroke-opacity: 0.6; stroke-width: 1.5"/>
   </g>
   <g id="line2d_9">
    <path d="M 50.646359 162 
L 78.944004 162 
L 79.509957 146.434975 
L 80.07591 114.89332 
L 80.641862 95.151206 
L 81.207815 82.886129 
L 81.773768 75.06207 
L 82.339721 69.877244 
L 82.905674 66.296843 
L 83.471627 63.718566 
L 84.03758 61.78232 
L 85.169486 59.032519 
L 86.301391 57.081124 
L 87.99925 54.830652 
L 89.697109 52.968985 
L 91.96092 50.812755 
L 94.790685 48.474821 
L 97.620449 46.447123 
L 100.450214 44.675097 
L 103.845931 42.830269 
L 107.241648 41.242212 
L 111.203319 39.658207 
L 115.164989 38.314004 
L 119.692612 37.018982 
L 124.786188 35.812795 
L 130.445717 34.722427 
L 136.671199 33.763166 
L 143.462633 32.940265 
L 151.385974 32.205202 
L 161.007173 31.552837 
L 163.836938 31.399793 
L 165.534796 38.513766 
L 167.232655 44.898213 
L 168.930514 50.62833 
L 170.628372 55.772035 
L 172.892184 61.821751 
L 175.155995 67.065868 
L 177.419807 71.6188 
L 179.683619 75.57962 
L 181.94743 79.033756 
L 184.211242 82.055426 
L 186.475053 84.708813 
L 188.738865 87.048643 
L 191.002676 89.118416 
L 193.832441 91.38647 
L 196.662205 93.363087 
L 200.057923 95.427255 
L 203.45364 97.222404 
L 207.41531 99.051644 
L 211.942933 100.875109 
L 217.03651 102.678472 
L 220.432227 103.772212 
L 220.99818 32.439425 
L 229.487473 31.790726 
L 240.240578 31.207026 
L 248.163919 30.898602 
L 248.163919 30.898602 
" clip-path="url(#pe2b6ffb900)" style="fill: none; stroke-dasharray: 1.5,2.475; stroke-dashoffset: 0; stroke: #1f77b4; stroke-opacity: 0.6; stroke-width: 1.5"/>
   </g>
   <g id="line2d_10">
    <path d="M 50.646359 162 
L 78.944004 162 
L 79.509957 160.726418 
L 80.641862 155.903015 
L 81.773768 152.410637 
L 82.905674 150.155712 
L 84.03758 148.673231 
L 85.169486 147.651781 
L 85.735438 147.599979 
L 86.301391 146.784237 
L 88.565203 145.339938 
L 90.829014 144.033684 
L 91.394967 143.999983 
L 91.96092 143.338496 
L 96.488543 140.573225 
L 97.054496 140.399978 
L 97.620449 140.399978 
L 98.186402 139.475188 
L 102.148072 136.878527 
L 103.279978 136.799973 
L 103.845931 135.713648 
L 107.241648 133.373974 
L 107.807601 133.199976 
L 108.939507 133.199976 
L 109.50546 131.703093 
L 112.335224 129.599979 
L 113.46713 129.599979 
L 114.033083 128.252736 
L 116.862848 126.018806 
L 118.560706 125.999974 
L 119.126659 124.138289 
L 120.824518 122.724838 
L 121.390471 122.399969 
L 123.088329 122.399969 
L 123.654282 120.293302 
L 125.352141 118.827683 
L 127.05 118.799973 
L 127.615952 116.820515 
L 129.313811 115.318521 
L 129.879764 115.199976 
L 131.577623 115.199976 
L 132.143576 112.810553 
L 133.275481 111.813809 
L 133.841434 111.599971 
L 135.539293 111.599971 
L 136.105246 109.312768 
L 137.237152 108.321475 
L 137.803105 107.999966 
L 140.066916 107.999966 
L 140.632869 105.373135 
L 141.764775 104.40626 
L 144.594539 104.399969 
L 145.160492 101.555115 
L 145.726445 101.089063 
L 146.292398 100.799973 
L 149.122162 100.799973 
L 149.688115 97.890261 
L 150.254068 97.44531 
L 150.820021 97.199967 
L 154.215738 97.199967 
L 154.781691 93.94625 
L 155.347644 93.599962 
L 159.309314 93.599962 
L 159.875267 90.232112 
L 160.44122 89.999966 
L 169.496467 90.040611 
L 170.062419 90.280718 
L 170.628372 93.599962 
L 178.551713 93.702526 
L 179.683619 94.129821 
L 180.249571 97.199967 
L 188.172912 97.199967 
L 190.436724 97.930678 
L 191.002676 100.799973 
L 199.49197 100.799973 
L 202.887687 101.787442 
L 203.45364 104.399969 
L 212.508886 104.460162 
L 216.470557 105.492053 
L 217.03651 107.999966 
L 220.432227 107.999966 
L 220.99818 100.799973 
L 221.564133 100.799973 
L 222.130086 97.831651 
L 222.696038 97.385877 
L 223.261991 97.199967 
L 226.657709 97.199967 
L 227.223662 93.886577 
L 227.789614 93.599962 
L 231.751285 93.599962 
L 232.317238 90.174773 
L 232.88319 89.999966 
L 237.410814 89.999966 
L 237.976767 86.399969 
L 243.636295 86.399969 
L 244.202248 82.799973 
L 248.163919 82.799973 
L 248.163919 82.799973 
" clip-path="url(#pe2b6ffb900)" style="fill: none; stroke-dasharray: 1.5,2.475; stroke-dashoffset: 0; stroke: #ff7f0e; stroke-opacity: 0.6; stroke-width: 1.5"/>
   </g>
   <g id="patch_10">
    <path d="M 28.857173 190.8 
L 28.857173 10.8 
" style="fill: none; stroke: #000000; stroke-width: 0.8; stroke-linejoin: miter; stroke-linecap: square"/>
   </g>
   <g id="patch_11">
    <path d="M 28.857173 190.8 
L 259.2 190.8 
" style="fill: none; stroke: #000000; stroke-width: 0.8; stroke-linejoin: miter; stroke-linecap: square"/>
   </g>
   <g id="PathCollection_1">
    <defs>
     <path id="md98111f346" d="M -0 5 
L 3 0 
L 0 -5 
L -3 -0 
z
" style="stroke: #ffffff; stroke-width: 0.6"/>
    </defs>
    <g clip-path="url(#pe2b6ffb900)">
     <use xlink:href="#md98111f346" x="78.378051" y="162" style="fill: #463480; stroke: #ffffff; stroke-width: 0.6"/>
    </g>
   </g>
   <g id="PathCollection_2">
    <defs>
     <path id="m7ca001d203" d="M -0 5 
L 3 0 
L 0 -5 
L -3 -0 
z
" style="stroke: #ffffff; stroke-width: 0.6"/>
    </defs>
    <g clip-path="url(#pe2b6ffb900)">
     <use xlink:href="#m7ca001d203" x="78.944004" y="146.429169" style="fill: #30698e; stroke: #ffffff; stroke-width: 0.6"/>
    </g>
   </g>
   <g id="PathCollection_3">
    <defs>
     <path id="m594082eda6" d="M -0 5 
L 3 0 
L 0 -5 
L -3 -0 
z
" style="stroke: #ffffff; stroke-width: 0.6"/>
    </defs>
    <g clip-path="url(#pe2b6ffb900)">
     <use xlink:href="#m594082eda6" x="106.675695" y="41.195958" style="fill: #1f968b; stroke: #ffffff; stroke-width: 0.6"/>
    </g>
   </g>
   <g id="PathCollection_4">
    <defs>
     <path id="m169ffdeac8" d="M -0 5 
L 3 0 
L 0 -5 
L -3 -0 
z
" style="stroke: #ffffff; stroke-width: 0.6"/>
    </defs>
    <g clip-path="url(#pe2b6ffb900)">
     <use xlink:href="#m169ffdeac8" x="163.270985" y="31.349753" style="fill: #4ac16d; stroke: #ffffff; stroke-width: 0.6"/>
    </g>
   </g>
   <g id="PathCollection_5">
    <defs>
     <path id="maf5299fb71" d="M -0 5 
L 3 0 
L 0 -5 
L -3 -0 
z
" style="stroke: #ffffff; stroke-width: 0.6"/>
    </defs>
    <g clip-path="url(#pe2b6ffb900)">
     <use xlink:href="#maf5299fb71" x="219.866274" y="33.352492" style="fill: #bddf26; stroke: #ffffff; stroke-width: 0.6"/>
    </g>
   </g>
   <g id="PathCollection_6">
    <defs>
     <path id="m4aa75e9d07" d="M 0 3.535534 
C 0.937635 3.535534 1.836992 3.163008 2.5 2.5 
C 3.163008 1.836992 3.535534 0.937635 3.535534 0 
C 3.535534 -0.937635 3.163008 -1.836992 2.5 -2.5 
C 1.836992 -3.163008 0.937635 -3.535534 0 -3.535534 
C -0.937635 -3.535534 -1.836992 -3.163008 -2.5 -2.5 
C -3.163008 -1.836992 -3.535534 -0.937635 -3.535534 0 
C -3.535534 0.937635 -3.163008 1.836992 -2.5 2.5 
C -1.836992 3.163008 -0.937635 3.535534 0 3.535534 
z
" style="stroke: #ffffff; stroke-width: 0.6"/>
    </defs>
    <g clip-path="url(#pe2b6ffb900)">
     <use xlink:href="#m4aa75e9d07" x="78.378051" y="162" style="fill: #463480; stroke: #ffffff; stroke-width: 0.6"/>
    </g>
   </g>
   <g id="PathCollection_7">
    <defs>
     <path id="m705b5377f0" d="M 0 3.535534 
C 0.937635 3.535534 1.836992 3.163008 2.5 2.5 
C 3.163008 1.836992 3.535534 0.937635 3.535534 0 
C 3.535534 -0.937635 3.163008 -1.836992 2.5 -2.5 
C 1.836992 -3.163008 0.937635 -3.535534 0 -3.535534 
C -0.937635 -3.535534 -1.836992 -3.163008 -2.5 -2.5 
C -3.163008 -1.836992 -3.535534 -0.937635 -3.535534 0 
C -3.535534 0.937635 -3.163008 1.836992 -2.5 2.5 
C -1.836992 3.163008 -0.937635 3.535534 0 3.535534 
z
" style="stroke: #ffffff; stroke-width: 0.6"/>
    </defs>
    <g clip-path="url(#pe2b6ffb900)">
     <use xlink:href="#m705b5377f0" x="78.944004" y="160.726418" style="fill: #30698e; stroke: #ffffff; stroke-width: 0.6"/>
    </g>
   </g>
   <g id="PathCollection_8">
    <defs>
     <path id="md4d36d1953" d="M 0 3.535534 
C 0.937635 3.535534 1.836992 3.163008 2.5 2.5 
C 3.163008 1.836992 3.535534 0.937635 3.535534 0 
C 3.535534 -0.937635 3.163008 -1.836992 2.5 -2.5 
C 1.836992 -3.163008 0.937635 -3.535534 0 -3.535534 
C -0.937635 -3.535534 -1.836992 -3.163008 -2.5 -2.5 
C -3.163008 -1.836992 -3.535534 -0.937635 -3.535534 0 
C -3.535534 0.937635 -3.163008 1.836992 -2.5 2.5 
C -1.836992 3.163008 -0.937635 3.535534 0 3.535534 
z
" style="stroke: #ffffff; stroke-width: 0.6"/>
    </defs>
    <g clip-path="url(#pe2b6ffb900)">
     <use xlink:href="#md4d36d1953" x="106.675695" y="133.373974" style="fill: #1f968b; stroke: #ffffff; stroke-width: 0.6"/>
    </g>
   </g>
   <g id="PathCollection_9">
    <defs>
     <path id="m4298b84ce7" d="M 0 3.535534 
C 0.937635 3.535534 1.836992 3.163008 2.5 2.5 
C 3.163008 1.836992 3.535534 0.937635 3.535534 0 
C 3.535534 -0.937635 3.163008 -1.836992 2.5 -2.5 
C 1.836992 -3.163008 0.937635 -3.535534 0 -3.535534 
C -0.937635 -3.535534 -1.836992 -3.163008 -2.5 -2.5 
C -3.163008 -1.836992 -3.535534 -0.937635 -3.535534 0 
C -3.535534 0.937635 -3.163008 1.836992 -2.5 2.5 
C -1.836992 3.163008 -0.937635 3.535534 0 3.535534 
z
" style="stroke: #ffffff; stroke-width: 0.6"/>
    </defs>
    <g clip-path="url(#pe2b6ffb900)">
     <use xlink:href="#m4298b84ce7" x="163.270985" y="89.999966" style="fill: #4ac16d; stroke: #ffffff; stroke-width: 0.6"/>
    </g>
   </g>
   <g id="PathCollection_10">
    <defs>
     <path id="m96701344f5" d="M 0 3.535534 
C 0.937635 3.535534 1.836992 3.163008 2.5 2.5 
C 3.163008 1.836992 3.535534 0.937635 3.535534 0 
C 3.535534 -0.937635 3.163008 -1.836992 2.5 -2.5 
C 1.836992 -3.163008 0.937635 -3.535534 0 -3.535534 
C -0.937635 -3.535534 -1.836992 -3.163008 -2.5 -2.5 
C -3.163008 -1.836992 -3.535534 -0.937635 -3.535534 0 
C -3.535534 0.937635 -3.163008 1.836992 -2.5 2.5 
C -1.836992 3.163008 -0.937635 3.535534 0 3.535534 
z
" style="stroke: #ffffff; stroke-width: 0.6"/>
    </defs>
    <g clip-path="url(#pe2b6ffb900)">
     <use xlink:href="#m96701344f5" x="219.866274" y="107.999966" style="fill: #bddf26; stroke: #ffffff; stroke-width: 0.6"/>
    </g>
   </g>
  </g>
 </g>
 <defs>
  <clipPath id="pe2b6ffb900">
   <rect x="28.857173" y="10.8" width="230.342827" height="180"/>
  </clipPath>
 </defs>
</svg>
