<?xml version="1.0" encoding="utf-8" standalone="no"?>
<!DOCTYPE svg PUBLIC "-//W3C//DTD SVG 1.1//EN"
  "http://www.w3.org/Graphics/SVG/1.1/DTD/svg11.dtd">
<svg xmlns:xlink="http://www.w3.org/1999/xlink" width="270pt" height="201.6pt" viewBox="0 0 270 201.6" xmlns="http://www.w3.org/2000/svg" version="1.1">
 <metadata>
  <rdf:RDF xmlns:dc="http://purl.org/dc/elements/1.1/" xmlns:cc="http://creativecommons.org/ns#" xmlns:rdf="http://www.w3.org/1999/02/22-rdf-syntax-ns#">
   <cc:Work>
    <dc:type rdf:resource="http://purl.org/dc/dcmitype/StillImage"/>
    <dc:date>2026-04-30T13:48:37.344619</dc:date>
    <dc:format>image/svg+xml</dc:format>
    <dc:creator>
     <cc:Agent>
      <dc:title>Matplotlib v3.9.2, https://matplotlib.org/</dc:title>
     </cc:Agent>
    </dc:creator>
   </cc:Work>
  </rdf:RDF>
 </metadata>
 <defs>
  <style type="text/css">*{stroke-linejoin: round; stroke-linecap: butt}</style>
 </defs>
 <g id="figure_1">
  <g id="patch_1">
   <path d="M 0 201.6 
L 270 201.6 
L 270 0 
L 0 0 
z
" style="fill: #ffffff"/>
  </g>
  <g id="axes_1">
   <g id="patch_2">
    <path d="M 28.857173 190.8 
L 259.2 190.8 
L 259.2 10.8 
L 28.857173 10.8 
z
" style="fill: #ffffff"/>
   </g>
   <g id="patch_3">
    <path d="M 15.657011 190.8 
L 61.19757 190.8 
L 61.19757 10.8 
L 15.657011 10.8 
z
" clip-path="url(#pe4b961b85b)" style="fill: #cccccc; opacity: 0.08; stroke: #cccccc; stroke-linejoin: miter"/>
   </g>
   <g id="patch_4">
    <path d="M 61.857578 190.8 
L 94.857983 190.8 
L 94.857983 10.8 
L 61.857578 10.8 
z
" clip-path="url(#pe4b961b85b)" style="fill: #2ca02c; opacity: 0.08; stroke: #2ca02c; stroke-linejoin: miter"/>
   </g>
   <g id="patch_5">
    <path d="M 61.857578 190.8 
L 160.858793 190.8 
L 160.858793 10.8 
L 61.857578 10.8 
z
" clip-path="url(#pe4b961b85b)" style="fill: #2ca02c; opacity: 0.05; stroke: #2ca02c; stroke-linejoin: miter"/>
   </g>
   <g id="patch_6">
    <path d="M 94.857983 190.8 
L 259.860008 190.8 
L 259.860008 10.8 
L 94.857983 10.8 
z
" clip-path="url(#pe4b961b85b)" style="fill: #d62728; opacity: 0.05; stroke: #d62728; stroke-linejoin: miter"/>
   </g>
   <g id="patch_7">
    <path d="M 160.858793 190.8 
L 259.860008 190.8 
L 259.860008 10.8 
L 160.858793 10.8 
z
" clip-path="url(#pe4b961b85b)" style="fill: #d62728; opacity: 0.08; stroke: #d62728; stroke-linejoin: miter"/>
   </g>
   <g id="patch_8">
    <path d="M 94.857983 190.8 
L 160.858793 190.8 
L 160.858793 10.8 
L 94.857983 10.8 
z
" clip-path="url(#pe4b961b85b)" style="fill: #ff7f0e; opacity: 0.06; stroke: #ff7f0e; stroke-linejoin: miter"/>
   </g>
   <g id="patch_9">
    <path d="M 226.859603 190.8 
L 259.860008 190.8 
L 259.860008 10.8 
L 226.859603 10.8 
z
" clip-path="url(#pe4b961b85b)" style="fill: #2ca02c; opacity: 0.12; stroke: #2ca02c; stroke-linejoin: miter"/>
   </g>
   <g id="matplotlib.axis_1"/>
   <g id="matplotlib.axis_2">
    <g id="ytick_1">
     <g id="line2d_1">
      <path d="M 28.857173 162 
L 259.2 162 
" clip-path="url(#pe4b961b85b)" style="fill: none; stroke: #b0b0b0; stroke-opacity: 0.2; stroke-width: 0.8; stroke-linecap: square"/>
     </g>
     <g id="line2d_2">
      <defs>
       <path id="m639a095d6e" d="M 0 0 
L 3.5 0 
" style="stroke: #000000; stroke-width: 0.8"/>
      </defs>
      <g>
       <use xlink:href="#m639a095d6e" x="28.857173" y="162" style="stroke: #000000; stroke-width: 0.8"/>
      </g>
     </g>
     <g id="text_1">
      <!-- $P^0$ -->
      <g transform="translate(13.857173 165.799219) scale(0.1 -0.1)">
       <defs>
        <path id="DejaVuSans-Oblique-50" d="M 1081 4666 
L 2541 4666 
Q 3178 4666 3512 4369 
Q 3847 4072 3847 3500 
Q 3847 2731 3353 2303 
Q 2859 1875 1966 1875 
L 1172 1875 
L 806 0 
L 172 0 
L 1081 4666 
z
M 1613 4147 
L 1275 2394 
L 2069 2394 
Q 2606 2394 2893 2669 
Q 3181 2944 3181 3456 
Q 3181 3784 2986 3965 
Q 2791 4147 2438 4147 
L 1613 4147 
z
" transform="scale(0.015625)"/>
        <path id="DejaVuSans-30" d="M 2034 4250 
Q 1547 4250 1301 3770 
Q 1056 3291 1056 2328 
Q 1056 1369 1301 889 
Q 1547 409 2034 409 
Q 2525 409 2770 889 
Q 3016 1369 3016 2328 
Q 3016 3291 2770 3770 
Q 2525 4250 2034 4250 
z
M 2034 4750 
Q 2819 4750 3233 4129 
Q 3647 3509 3647 2328 
Q 3647 1150 3233 529 
Q 2819 -91 2034 -91 
Q 1250 -91 836 529 
Q 422 1150 422 2328 
Q 422 3509 836 4129 
Q 1250 4750 2034 4750 
z
" transform="scale(0.015625)"/>
       </defs>
       <use xlink:href="#DejaVuSans-Oblique-50" transform="translate(0 0.765625)"/>
       <use xlink:href="#DejaVuSans-30" transform="translate(67.319505 39.046875) scale(0.7)"/>
      </g>
     </g>
    </g>
    <g id="ytick_2">
     <g id="line2d_3">
      <path d="M 28.857173 28.852261 
L 259.2 28.852261 
" clip-path="url(#pe4b961b85b)" style="fill: none; stroke: #b0b0b0; stroke-opacity: 0.2; stroke-width: 0.8; stroke-linecap: square"/>
     </g>
     <g id="line2d_4">
      <g>
       <use xlink:href="#m639a095d6e" x="28.857173" y="28.852261" style="stroke: #000000; stroke-width: 0.8"/>
      </g>
     </g>
     <g id="text_2">
      <!-- $P^+$ -->
      <g transform="translate(9.757173 32.651479) scale(0.1 -0.1)">
       <defs>
        <path id="DejaVuSans-2b" d="M 2944 4013 
L 2944 2272 
L 4684 2272 
L 4684 1741 
L 2944 1741 
L 2944 0 
L 2419 0 
L 2419 1741 
L 678 1741 
L 678 2272 
L 2419 2272 
L 2419 4013 
L 2944 4013 
z
" transform="scale(0.015625)"/>
       </defs>
       <use xlink:href="#DejaVuSans-Oblique-50" transform="translate(0 0.826562)"/>
       <use xlink:href="#DejaVuSans-2b" transform="translate(80.957201 39.107812) scale(0.7)"/>
      </g>
     </g>
    </g>
   </g>
   <g id="line2d_5">
    <path d="M 28.857173 162 
L 61.857578 162 
L 62.517586 146.434975 
L 63.177594 114.89332 
L 63.837602 95.151206 
L 64.49761 82.886129 
L 65.157618 75.06207 
L 65.817626 69.877244 
L 66.477635 66.296843 
L 67.137643 63.718566 
L 67.797651 61.78232 
L 68.457659 60.266773 
L 69.777675 57.99008 
L 71.097691 56.267218 
L 73.077716 54.179197 
L 75.717748 51.853435 
L 78.35778 49.835795 
L 81.657821 47.630024 
L 84.957861 45.710103 
L 88.257902 44.028568 
L 92.21795 42.27467 
L 96.177999 40.76235 
L 100.798056 39.25167 
L 105.418112 37.967995 
L 110.698177 36.729887 
L 116.63825 35.575516 
L 123.238331 34.531016 
L 130.49842 33.611375 
L 139.078526 32.764544 
L 148.978647 32.030949 
L 160.198785 31.42919 
L 160.858793 31.399793 
L 162.838817 38.513766 
L 164.818842 44.898213 
L 166.798866 50.62833 
L 168.77889 55.772035 
L 170.758914 60.389666 
L 172.738939 64.537004 
L 174.718963 68.264777 
L 176.698987 71.6188 
L 178.679012 74.640058 
L 181.319044 78.213455 
L 183.959076 81.336903 
L 186.599109 84.076807 
L 189.239141 86.490623 
L 191.879174 88.624014 
L 195.179214 90.958179 
L 198.479255 92.988238 
L 201.779295 94.772135 
L 205.739344 96.650239 
L 210.359401 98.554195 
L 214.979457 100.219603 
L 220.91953 102.101526 
L 227.519611 103.947586 
L 235.439708 105.925524 
L 244.679822 108.001871 
L 255.239951 110.152273 
L 259.2 110.907008 
L 259.2 110.907008 
" clip-path="url(#pe4b961b85b)" style="fill: none; stroke: #1f77b4; stroke-opacity: 0.75; stroke-width: 2.5; stroke-linecap: square"/>
   </g>
   <g id="line2d_6">
    <path d="M 28.857173 162 
L 61.857578 162 
L 62.517586 160.726418 
L 63.837602 155.903015 
L 65.157618 152.410637 
L 66.477635 150.155712 
L 67.797651 148.673231 
L 69.117667 147.651781 
L 69.777675 147.599979 
L 70.437683 146.784237 
L 73.077716 145.339938 
L 75.717748 144.033684 
L 76.377756 143.999983 
L 77.037764 143.338496 
L 82.317829 140.573225 
L 82.977837 140.399978 
L 83.637845 140.399978 
L 84.297853 139.475188 
L 88.91791 136.878527 
L 90.237926 136.799973 
L 90.897934 135.713648 
L 94.857983 133.373974 
L 95.517991 133.199976 
L 96.838007 133.199976 
L 97.498015 131.703093 
L 100.798056 129.599979 
L 102.118072 129.599979 
L 102.77808 128.252736 
L 106.078121 126.018806 
L 108.058145 125.999974 
L 108.718153 124.138289 
L 110.698177 122.724838 
L 111.358185 122.399969 
L 113.33821 122.399969 
L 113.998218 120.293302 
L 115.978242 118.827683 
L 117.958266 118.799973 
L 118.618274 116.820515 
L 120.598299 115.318521 
L 121.258307 115.199976 
L 123.238331 115.199976 
L 123.898339 112.810553 
L 125.218355 111.813809 
L 125.878364 111.599971 
L 127.858388 111.599971 
L 128.518396 109.312768 
L 129.838412 108.321475 
L 130.49842 107.999966 
L 133.138453 107.999966 
L 133.798461 105.373135 
L 135.118477 104.40626 
L 138.418518 104.399969 
L 139.078526 101.555115 
L 139.738534 101.089063 
L 140.398542 100.799973 
L 143.698582 100.799973 
L 144.35859 97.890261 
L 145.018599 97.44531 
L 145.678607 97.199967 
L 149.638655 97.199967 
L 150.298663 93.94625 
L 150.958671 93.599962 
L 155.578728 93.599962 
L 156.238736 90.232112 
L 156.898744 89.999966 
L 167.458874 90.040611 
L 168.118882 90.280718 
L 168.77889 93.599962 
L 178.019004 93.702526 
L 179.33902 94.129821 
L 179.999028 97.199967 
L 189.239141 97.199967 
L 191.879174 97.930678 
L 192.539182 100.799973 
L 202.439303 100.799973 
L 206.399352 101.787442 
L 207.05936 104.399969 
L 217.61949 104.460162 
L 222.239546 105.492053 
L 222.899554 107.999966 
L 234.119692 107.999966 
L 240.719773 109.275341 
L 241.379781 111.599971 
L 253.919935 111.678819 
L 259.2 112.570102 
L 259.2 112.570102 
" clip-path="url(#pe4b961b85b)" style="fill: none; stroke: #ff7f0e; stroke-opacity: 0.75; stroke-width: 2.5; stroke-linecap: square"/>
   </g>
   <g id="line2d_7">
    <path d="M 28.857173 162 
L 61.857578 162 
L 62.517586 146.434975 
L 63.177594 114.89332 
L 63.837602 95.151206 
L 64.49761 82.886129 
L 65.157618 75.06207 
L 65.817626 69.877244 
L 66.477635 66.296843 
L 67.137643 63.718566 
L 67.797651 61.78232 
L 68.457659 60.266773 
L 69.777675 57.99008 
L 71.097691 56.267218 
L 73.077716 54.179197 
L 75.717748 51.853435 
L 78.35778 49.835795 
L 81.657821 47.630024 
L 84.957861 45.710103 
L 88.257902 44.028568 
L 92.21795 42.27467 
L 94.857983 41.242212 
L 96.177999 61.936815 
L 97.498015 78.161648 
L 98.818031 90.871413 
L 100.138048 100.808496 
L 101.458064 108.552114 
L 102.77808 114.574704 
L 104.098096 119.248313 
L 105.418112 122.866038 
L 106.738129 125.649751 
L 108.058145 127.781472 
L 109.378161 129.404328 
L 110.698177 130.635707 
L 112.018193 131.57044 
L 113.33821 132.279837 
L 115.318234 133.035692 
L 117.298258 133.543239 
L 119.938291 133.985295 
L 123.898339 134.375075 
L 130.49842 134.754932 
L 150.298663 135.574413 
L 195.839222 137.244777 
L 242.039789 138.71631 
L 259.2 139.215892 
L 259.2 139.215892 
" clip-path="url(#pe4b961b85b)" style="fill: none; stroke-dasharray: 5.55,2.4; stroke-dashoffset: 0; stroke: #1f77b4; stroke-opacity: 0.6; stroke-width: 1.5"/>
   </g>
   <g id="line2d_8">
    <path d="M 28.857173 162 
L 61.857578 162 
L 62.517586 160.726418 
L 63.837602 155.903015 
L 65.157618 152.410637 
L 66.477635 150.155712 
L 67.797651 148.673231 
L 69.117667 147.651781 
L 69.777675 147.599979 
L 70.437683 146.784237 
L 73.077716 145.339938 
L 75.717748 144.033684 
L 76.377756 143.999983 
L 77.037764 143.338496 
L 82.317829 140.573225 
L 82.977837 140.399978 
L 83.637845 140.399978 
L 84.297853 139.475188 
L 88.91791 136.878527 
L 90.237926 136.799973 
L 90.897934 135.713648 
L 94.857983 133.373974 
L 137.098501 135.178772 
L 154.91872 135.878469 
L 155.578728 136.799973 
L 182.63906 136.897438 
L 236.099716 138.597452 
L 259.2 139.268624 
L 259.2 139.268624 
" clip-path="url(#pe4b961b85b)" style="fill: none; stroke-dasharray: 5.55,2.4; stroke-dashoffset: 0; stroke: #ff7f0e; stroke-opacity: 0.6; stroke-width: 1.5"/>
   </g>
   <g id="line2d_9">
    <path d="M 28.857173 162 
L 61.857578 162 
L 62.517586 146.434975 
L 63.177594 114.89332 
L 63.837602 95.151206 
L 64.49761 82.886129 
L 65.157618 75.06207 
L 65.817626 69.877244 
L 66.477635 66.296843 
L 67.137643 63.718566 
L 67.797651 61.78232 
L 68.457659 60.266773 
L 69.777675 57.99008 
L 71.097691 56.267218 
L 73.077716 54.179197 
L 75.717748 51.853435 
L 78.35778 49.835795 
L 81.657821 47.630024 
L 84.957861 45.710103 
L 88.257902 44.028568 
L 92.21795 42.27467 
L 96.177999 40.76235 
L 100.798056 39.25167 
L 105.418112 37.967995 
L 110.698177 36.729887 
L 116.63825 35.575516 
L 123.238331 34.531016 
L 130.49842 33.611375 
L 139.078526 32.764544 
L 148.978647 32.030949 
L 160.198785 31.42919 
L 160.858793 31.399793 
L 162.838817 38.513766 
L 164.818842 44.898213 
L 166.798866 50.62833 
L 168.77889 55.772035 
L 170.758914 60.389666 
L 172.738939 64.537004 
L 174.718963 68.264777 
L 176.698987 71.6188 
L 178.679012 74.640058 
L 181.319044 78.213455 
L 183.959076 81.336903 
L 186.599109 84.076807 
L 189.239141 86.490623 
L 191.879174 88.624014 
L 195.179214 90.958179 
L 198.479255 92.988238 
L 201.779295 94.772135 
L 205.739344 96.650239 
L 210.359401 98.554195 
L 214.979457 100.219603 
L 220.91953 102.101526 
L 226.859603 103.772212 
L 227.519611 32.439425 
L 237.419733 31.790726 
L 249.299878 31.232526 
L 259.2 30.898602 
L 259.2 30.898602 
" clip-path="url(#pe4b961b85b)" style="fill: none; stroke-dasharray: 1.5,2.475; stroke-dashoffset: 0; stroke: #1f77b4; stroke-opacity: 0.6; stroke-width: 1.5"/>
   </g>
   <g id="line2d_10">
    <path d="M 28.857173 162 
L 61.857578 162 
L 62.517586 160.726418 
L 63.837602 155.903015 
L 65.157618 152.410637 
L 66.477635 150.155712 
L 67.797651 148.673231 
L 69.117667 147.651781 
L 69.777675 147.599979 
L 70.437683 146.784237 
L 73.077716 145.339938 
L 75.717748 144.033684 
L 76.377756 143.999983 
L 77.037764 143.338496 
L 82.317829 140.573225 
L 82.977837 140.399978 
L 83.637845 140.399978 
L 84.297853 139.475188 
L 88.91791 136.878527 
L 90.237926 136.799973 
L 90.897934 135.713648 
L 94.857983 133.373974 
L 95.517991 133.199976 
L 96.838007 133.199976 
L 97.498015 131.703093 
L 100.798056 129.599979 
L 102.118072 129.599979 
L 102.77808 128.252736 
L 106.078121 126.018806 
L 108.058145 125.999974 
L 108.718153 124.138289 
L 110.698177 122.724838 
L 111.358185 122.399969 
L 113.33821 122.399969 
L 113.998218 120.293302 
L 115.978242 118.827683 
L 117.958266 118.799973 
L 118.618274 116.820515 
L 120.598299 115.318521 
L 121.258307 115.199976 
L 123.238331 115.199976 
L 123.898339 112.810553 
L 125.218355 111.813809 
L 125.878364 111.599971 
L 127.858388 111.599971 
L 128.518396 109.312768 
L 129.838412 108.321475 
L 130.49842 107.999966 
L 133.138453 107.999966 
L 133.798461 105.373135 
L 135.118477 104.40626 
L 138.418518 104.399969 
L 139.078526 101.555115 
L 139.738534 101.089063 
L 140.398542 100.799973 
L 143.698582 100.799973 
L 144.35859 97.890261 
L 145.018599 97.44531 
L 145.678607 97.199967 
L 149.638655 97.199967 
L 150.298663 93.94625 
L 150.958671 93.599962 
L 155.578728 93.599962 
L 156.238736 90.232112 
L 156.898744 89.999966 
L 167.458874 90.040611 
L 168.118882 90.280718 
L 168.77889 93.599962 
L 178.019004 93.702526 
L 179.33902 94.129821 
L 179.999028 97.199967 
L 189.239141 97.199967 
L 191.879174 97.930678 
L 192.539182 100.799973 
L 202.439303 100.799973 
L 206.399352 101.787442 
L 207.05936 104.399969 
L 217.61949 104.460162 
L 222.239546 105.492053 
L 222.899554 107.999966 
L 226.859603 107.999966 
L 227.519611 100.799973 
L 228.179619 100.799973 
L 228.839627 97.831651 
L 229.499635 97.385877 
L 230.159644 97.199967 
L 234.119692 97.199967 
L 234.7797 93.886577 
L 235.439708 93.599962 
L 240.059765 93.599962 
L 240.719773 90.174773 
L 241.379781 89.999966 
L 246.659846 89.999966 
L 247.319854 86.399969 
L 253.919935 86.399969 
L 254.579943 82.799973 
L 259.2 82.799973 
L 259.2 82.799973 
" clip-path="url(#pe4b961b85b)" style="fill: none; stroke-dasharray: 1.5,2.475; stroke-dashoffset: 0; stroke: #ff7f0e; stroke-opacity: 0.6; stroke-width: 1.5"/>
   </g>
   <g id="patch_10">
    <path d="M 28.857173 190.8 
L 28.857173 10.8 
" style="fill: none; stroke: #000000; stroke-width: 0.8; stroke-linejoin: miter; stroke-linecap: square"/>
   </g>
   <g id="patch_11">
    <path d="M 28.857173 190.8 
L 259.2 190.8 
" style="fill: none; stroke: #000000; stroke-width: 0.8; stroke-linejoin: miter; stroke-linecap: square"/>
   </g>
   <g id="PathCollection_1">
    <defs>
     <path id="mf2292b4dd6" d="M -0 5 
L 3 0 
L 0 -5 
L -3 -0 
z
" style="stroke: #ffffff; stroke-width: 0.6"/>
    </defs>
    <g clip-path="url(#pe4b961b85b)">
     <use xlink:href="#mf2292b4dd6" x="61.19757" y="162" style="fill: #463480; stroke: #ffffff; stroke-width: 0.6"/>
    </g>
   </g>
   <g id="PathCollection_2">
    <defs>
     <path id="mad78451660" d="M -0 5 
L 3 0 
L 0 -5 
L -3 -0 
z
" style="stroke: #ffffff; stroke-width: 0.6"/>
    </defs>
    <g clip-path="url(#pe4b961b85b)">
     <use xlink:href="#mad78451660" x="61.857578" y="146.429169" style="fill: #30698e; stroke: #ffffff; stroke-width: 0.6"/>
    </g>
   </g>
   <g id="PathCollection_3">
    <defs>
     <path id="m2d34c4a4e8" d="M -0 5 
L 3 0 
L 0 -5 
L -3 -0 
z
" style="stroke: #ffffff; stroke-width: 0.6"/>
    </defs>
    <g clip-path="url(#pe4b961b85b)">
     <use xlink:href="#m2d34c4a4e8" x="94.197975" y="41.195958" style="fill: #1f968b; stroke: #ffffff; stroke-width: 0.6"/>
    </g>
   </g>
   <g id="PathCollection_4">
    <defs>
     <path id="m7c0484992c" d="M -0 5 
L 3 0 
L 0 -5 
L -3 -0 
z
" style="stroke: #ffffff; stroke-width: 0.6"/>
    </defs>
    <g clip-path="url(#pe4b961b85b)">
     <use xlink:href="#m7c0484992c" x="160.198785" y="31.349753" style="fill: #4ac16d; stroke: #ffffff; stroke-width: 0.6"/>
    </g>
   </g>
   <g id="PathCollection_5">
    <defs>
     <path id="m3315278fc9" d="M -0 5 
L 3 0 
L 0 -5 
L -3 -0 
z
" style="stroke: #ffffff; stroke-width: 0.6"/>
    </defs>
    <g clip-path="url(#pe4b961b85b)">
     <use xlink:href="#m3315278fc9" x="226.199595" y="33.352492" style="fill: #bddf26; stroke: #ffffff; stroke-width: 0.6"/>
    </g>
   </g>
   <g id="PathCollection_6">
    <defs>
     <path id="m005f16f7c6" d="M 0 3.535534 
C 0.937635 3.535534 1.836992 3.163008 2.5 2.5 
C 3.163008 1.836992 3.535534 0.937635 3.535534 0 
C 3.535534 -0.937635 3.163008 -1.836992 2.5 -2.5 
C 1.836992 -3.163008 0.937635 -3.535534 0 -3.535534 
C -0.937635 -3.535534 -1.836992 -3.163008 -2.5 -2.5 
C -3.163008 -1.836992 -3.535534 -0.937635 -3.535534 0 
C -3.535534 0.937635 -3.163008 1.836992 -2.5 2.5 
C -1.836992 3.163008 -0.937635 3.535534 0 3.535534 
z
" style="stroke: #ffffff; stroke-width: 0.6"/>
    </defs>
    <g clip-path="url(#pe4b961b85b)">
     <use xlink:href="#m005f16f7c6" x="61.19757" y="162" style="fill: #463480; stroke: #ffffff; stroke-width: 0.6"/>
    </g>
   </g>
   <g id="PathCollection_7">
    <defs>
     <path id="md92c60e108" d="M 0 3.535534 
C 0.937635 3.535534 1.836992 3.163008 2.5 2.5 
C 3.163008 1.836992 3.535534 0.937635 3.535534 0 
C 3.535534 -0.937635 3.163008 -1.836992 2.5 -2.5 
C 1.836992 -3.163008 0.937635 -3.535534 0 -3.535534 
C -0.937635 -3.535534 -1.836992 -3.163008 -2.5 -2.5 
C -3.163008 -1.836992 -3.535534 -0.937635 -3.535534 0 
C -3.535534 0.937635 -3.163008 1.836992 -2.5 2.5 
C -1.836992 3.163008 -0.937635 3.535534 0 3.535534 
z
" style="stroke: #ffffff; stroke-width: 0.6"/>
    </defs>
    <g clip-path="url(#pe4b961b85b)">
     <use xlink:href="#md92c60e108" x="61.857578" y="160.726418" style="fill: #30698e; stroke: #ffffff; stroke-width: 0.6"/>
    </g>
   </g>
   <g id="PathCollection_8">
    <defs>
     <path id="m7cfa5adabf" d="M 0 3.535534 
C 0.937635 3.535534 1.836992 3.163008 2.5 2.5 
C 3.163008 1.836992 3.535534 0.937635 3.535534 0 
C 3.535534 -0.937635 3.163008 -1.836992 2.5 -2.5 
C 1.836992 -3.163008 0.937635 -3.535534 0 -3.535534 
C -0.937635 -3.535534 -1.836992 -3.163008 -2.5 -2.5 
C -3.163008 -1.836992 -3.535534 -0.937635 -3.535534 0 
C -3.535534 0.937635 -3.163008 1.836992 -2.5 2.5 
C -1.836992 3.163008 -0.937635 3.535534 0 3.535534 
z
" style="stroke: #ffffff; stroke-width: 0.6"/>
    </defs>
    <g clip-path="url(#pe4b961b85b)">
     <use xlink:href="#m7cfa5adabf" x="94.197975" y="133.373974" style="fill: #1f968b; stroke: #ffffff; stroke-width: 0.6"/>
    </g>
   </g>
   <g id="PathCollection_9">
    <defs>
     <path id="m49065dcc0b" d="M 0 3.535534 
C 0.937635 3.535534 1.836992 3.163008 2.5 2.5 
C 3.163008 1.836992 3.535534 0.937635 3.535534 0 
C 3.535534 -0.937635 3.163008 -1.836992 2.5 -2.5 
C 1.836992 -3.163008 0.937635 -3.535534 0 -3.535534 
C -0.937635 -3.535534 -1.836992 -3.163008 -2.5 -2.5 
C -3.163008 -1.836992 -3.535534 -0.937635 -3.535534 0 
C -3.535534 0.937635 -3.163008 1.836992 -2.5 2.5 
C -1.836992 3.163008 -0.937635 3.535534 0 3.535534 
z
" style="stroke: #ffffff; stroke-width: 0.6"/>
    </defs>
    <g clip-path="url(#pe4b961b85b)">
     <use xlink:href="#m49065dcc0b" x="160.198785" y="89.999966" style="fill: #4ac16d; stroke: #ffffff; stroke-width: 0.6"/>
    </g>
   </g>
   <g id="PathCollection_10">
    <defs>
     <path id="mc948b14016" d="M 0 3.535534 
C 0.937635 3.535534 1.836992 3.163008 2.5 2.5 
C 3.163008 1.836992 3.535534 0.937635 3.535534 0 
C 3.535534 -0.937635 3.163008 -1.836992 2.5 -2.5 
C 1.836992 -3.163008 0.937635 -3.535534 0 -3.535534 
C -0.937635 -3.535534 -1.836992 -3.163008 -2.5 -2.5 
C -3.163008 -1.836992 -3.535534 -0.937635 -3.535534 0 
C -3.535534 0.937635 -3.163008 1.836992 -2.5 2.5 
C -1.836992 3.163008 -0.937635 3.535534 0 3.535534 
z
" style="stroke: #ffffff; stroke-width: 0.6"/>
    </defs>
    <g clip-path="url(#pe4b961b85b)">
     <use xlink:href="#mc948b14016" x="226.199595" y="107.999966" style="fill: #bddf26; stroke: #ffffff; stroke-width: 0.6"/>
    </g>
   </g>
  </g>
 </g>
 <defs>
  <clipPath id="pe4b961b85b">
   <rect x="28.857173" y="10.8" width="230.342827" height="180"/>
  </clipPath>
 </defs>
</svg>
